<?xml version="1.0" encoding="UTF-8"?>
<svg xmlns="http://www.w3.org/2000/svg" xmlns:xlink="http://www.w3.org/1999/xlink" width="1486.5pt" height="444.749984pt" viewBox="0 0 1486.5 444.749984" version="1.2">
<defs>
<clipPath id="clip1">
  <path d="M 0.167969 304 L 9 304 L 9 316 L 0.167969 316 Z M 0.167969 304 "/>
</clipPath>
<clipPath id="clip2">
  <path d="M 0.167969 411 L 6 411 L 6 423 L 0.167969 423 Z M 0.167969 411 "/>
</clipPath>
<clipPath id="clip3">
  <path d="M 1475 44 L 1485.832031 44 L 1485.832031 56 L 1475 56 Z M 1475 44 "/>
</clipPath>
<clipPath id="clip4">
  <path d="M 1476 162 L 1485.832031 162 L 1485.832031 174 L 1476 174 Z M 1476 162 "/>
</clipPath>
<clipPath id="clip5">
  <path d="M 0.167969 314 L 17 314 L 17 383 L 0.167969 383 Z M 0.167969 314 "/>
</clipPath>
<clipPath id="clip6">
  <path d="M 1435 160 L 1485.832031 160 L 1485.832031 241 L 1435 241 Z M 1435 160 "/>
</clipPath>
<clipPath id="clip7">
  <path d="M 1439 100 L 1485.832031 100 L 1485.832031 176 L 1439 176 Z M 1439 100 "/>
</clipPath>
<clipPath id="clip8">
  <path d="M 1437 41 L 1485.832031 41 L 1485.832031 118 L 1437 118 Z M 1437 41 "/>
</clipPath>
<clipPath id="clip9">
  <path d="M 1434 341 L 1485.832031 341 L 1485.832031 406 L 1434 406 Z M 1434 341 "/>
</clipPath>
<clipPath id="clip10">
  <path d="M 1436 283 L 1485.832031 283 L 1485.832031 359 L 1436 359 Z M 1436 283 "/>
</clipPath>
</defs>
<g id="surface1">
<path style=" stroke:none;fill-rule:nonzero;fill:rgb(100%,91.758728%,0%);fill-opacity:1;" d="M 135.699219 28.605469 C 135.335938 28.605469 134.976562 28.640625 134.621094 28.710938 C 134.261719 28.78125 133.917969 28.886719 133.582031 29.027344 C 133.246094 29.164062 132.925781 29.335938 132.621094 29.539062 C 132.320312 29.742188 132.039062 29.96875 131.78125 30.226562 C 131.527344 30.484375 131.296875 30.765625 131.09375 31.066406 C 130.890625 31.371094 130.722656 31.6875 130.582031 32.023438 C 130.441406 32.359375 130.339844 32.707031 130.265625 33.0625 C 130.195312 33.421875 130.160156 33.78125 130.160156 34.144531 C 130.160156 34.507812 130.195312 34.867188 130.265625 35.226562 C 130.339844 35.582031 130.441406 35.929688 130.582031 36.265625 C 130.722656 36.601562 130.890625 36.921875 131.09375 37.222656 C 131.296875 37.523438 131.527344 37.804688 131.78125 38.0625 C 132.039062 38.320312 132.320312 38.550781 132.621094 38.75 C 132.925781 38.953125 133.246094 39.125 133.582031 39.261719 C 133.917969 39.402344 134.261719 39.507812 134.621094 39.578125 C 134.976562 39.648438 135.335938 39.683594 135.699219 39.683594 C 136.0625 39.683594 136.425781 39.648438 136.78125 39.578125 C 137.136719 39.507812 137.484375 39.402344 137.820312 39.261719 C 138.15625 39.125 138.476562 38.953125 138.777344 38.75 C 139.082031 38.550781 139.359375 38.320312 139.617188 38.0625 C 139.875 37.804688 140.105469 37.523438 140.304688 37.222656 C 140.507812 36.921875 140.679688 36.601562 140.820312 36.265625 C 140.957031 35.929688 141.0625 35.582031 141.132812 35.226562 C 141.203125 34.867188 141.238281 34.507812 141.238281 34.144531 C 141.238281 33.78125 141.203125 33.421875 141.132812 33.0625 C 141.0625 32.707031 140.957031 32.359375 140.820312 32.023438 C 140.679688 31.6875 140.507812 31.371094 140.304688 31.066406 C 140.105469 30.765625 139.875 30.484375 139.617188 30.226562 C 139.359375 29.96875 139.082031 29.742188 138.777344 29.539062 C 138.476562 29.335938 138.15625 29.164062 137.820312 29.027344 C 137.484375 28.886719 137.136719 28.78125 136.78125 28.710938 C 136.425781 28.640625 136.0625 28.605469 135.699219 28.605469 Z M 135.699219 28.605469 "/>
<path style=" stroke:none;fill-rule:nonzero;fill:rgb(100%,91.758728%,0%);fill-opacity:1;" d="M 190.269531 58.597656 C 189.90625 58.597656 189.546875 58.632812 189.1875 58.703125 C 188.832031 58.777344 188.484375 58.878906 188.148438 59.019531 C 187.8125 59.160156 187.496094 59.328125 187.191406 59.53125 C 186.890625 59.734375 186.609375 59.964844 186.351562 60.222656 C 186.09375 60.476562 185.867188 60.757812 185.664062 61.058594 C 185.460938 61.363281 185.292969 61.683594 185.152344 62.019531 C 185.011719 62.355469 184.90625 62.699219 184.835938 63.058594 C 184.765625 63.414062 184.730469 63.773438 184.730469 64.136719 C 184.730469 64.5 184.765625 64.863281 184.835938 65.21875 C 184.90625 65.574219 185.011719 65.921875 185.152344 66.257812 C 185.292969 66.59375 185.460938 66.914062 185.664062 67.214844 C 185.867188 67.519531 186.09375 67.796875 186.351562 68.054688 C 186.609375 68.3125 186.890625 68.542969 187.191406 68.746094 C 187.496094 68.945312 187.8125 69.117188 188.148438 69.257812 C 188.484375 69.394531 188.832031 69.5 189.1875 69.570312 C 189.546875 69.640625 189.90625 69.679688 190.269531 69.679688 C 190.632812 69.679688 190.992188 69.640625 191.351562 69.570312 C 191.707031 69.5 192.054688 69.394531 192.390625 69.257812 C 192.726562 69.117188 193.046875 68.945312 193.347656 68.746094 C 193.648438 68.542969 193.929688 68.3125 194.1875 68.054688 C 194.445312 67.796875 194.675781 67.519531 194.875 67.214844 C 195.078125 66.914062 195.25 66.59375 195.386719 66.257812 C 195.527344 65.921875 195.632812 65.574219 195.703125 65.21875 C 195.773438 64.863281 195.808594 64.5 195.808594 64.136719 C 195.808594 63.773438 195.773438 63.414062 195.703125 63.058594 C 195.632812 62.699219 195.527344 62.355469 195.386719 62.019531 C 195.25 61.683594 195.078125 61.363281 194.875 61.058594 C 194.675781 60.757812 194.445312 60.476562 194.1875 60.222656 C 193.929688 59.964844 193.648438 59.734375 193.347656 59.53125 C 193.046875 59.328125 192.726562 59.160156 192.390625 59.019531 C 192.054688 58.878906 191.707031 58.777344 191.351562 58.703125 C 190.992188 58.632812 190.632812 58.597656 190.269531 58.597656 Z M 190.269531 58.597656 "/>
<path style=" stroke:none;fill-rule:nonzero;fill:rgb(100%,91.758728%,0%);fill-opacity:1;" d="M 83.675781 58.597656 C 83.3125 58.597656 82.953125 58.632812 82.59375 58.703125 C 82.238281 58.777344 81.890625 58.878906 81.554688 59.019531 C 81.21875 59.160156 80.898438 59.328125 80.597656 59.53125 C 80.296875 59.734375 80.015625 59.964844 79.757812 60.222656 C 79.5 60.476562 79.273438 60.757812 79.070312 61.058594 C 78.867188 61.363281 78.695312 61.683594 78.558594 62.019531 C 78.417969 62.355469 78.3125 62.699219 78.242188 63.058594 C 78.171875 63.414062 78.136719 63.773438 78.136719 64.136719 C 78.136719 64.5 78.171875 64.863281 78.242188 65.21875 C 78.3125 65.574219 78.417969 65.921875 78.558594 66.257812 C 78.695312 66.59375 78.867188 66.914062 79.070312 67.214844 C 79.273438 67.519531 79.5 67.796875 79.757812 68.054688 C 80.015625 68.3125 80.296875 68.542969 80.597656 68.746094 C 80.898438 68.945312 81.21875 69.117188 81.554688 69.257812 C 81.890625 69.394531 82.238281 69.5 82.59375 69.570312 C 82.953125 69.640625 83.3125 69.679688 83.675781 69.679688 C 84.039062 69.679688 84.398438 69.640625 84.757812 69.570312 C 85.113281 69.5 85.460938 69.394531 85.796875 69.257812 C 86.132812 69.117188 86.449219 68.945312 86.753906 68.746094 C 87.054688 68.542969 87.335938 68.3125 87.59375 68.054688 C 87.851562 67.796875 88.078125 67.519531 88.28125 67.214844 C 88.484375 66.914062 88.65625 66.59375 88.792969 66.257812 C 88.933594 65.921875 89.039062 65.574219 89.109375 65.21875 C 89.179688 64.863281 89.214844 64.5 89.214844 64.136719 C 89.214844 63.773438 89.179688 63.414062 89.109375 63.058594 C 89.039062 62.699219 88.933594 62.355469 88.792969 62.019531 C 88.65625 61.683594 88.484375 61.363281 88.28125 61.058594 C 88.078125 60.757812 87.851562 60.476562 87.59375 60.222656 C 87.335938 59.964844 87.054688 59.734375 86.753906 59.53125 C 86.449219 59.328125 86.132812 59.160156 85.796875 59.019531 C 85.460938 58.878906 85.113281 58.777344 84.757812 58.703125 C 84.398438 58.632812 84.039062 58.597656 83.675781 58.597656 Z M 83.675781 58.597656 "/>
<path style=" stroke:none;fill-rule:nonzero;fill:rgb(100%,91.758728%,0%);fill-opacity:1;" d="M 82.925781 121 C 82.5625 121 82.203125 121.039062 81.84375 121.109375 C 81.488281 121.179688 81.140625 121.285156 80.804688 121.421875 C 80.46875 121.5625 80.152344 121.734375 79.847656 121.9375 C 79.546875 122.136719 79.265625 122.367188 79.007812 122.625 C 78.75 122.882812 78.523438 123.160156 78.320312 123.464844 C 78.117188 123.765625 77.945312 124.085938 77.808594 124.421875 C 77.667969 124.757812 77.5625 125.105469 77.492188 125.460938 C 77.421875 125.816406 77.386719 126.179688 77.386719 126.542969 C 77.386719 126.90625 77.421875 127.265625 77.492188 127.621094 C 77.5625 127.980469 77.667969 128.324219 77.808594 128.660156 C 77.945312 128.996094 78.117188 129.316406 78.320312 129.621094 C 78.523438 129.921875 78.75 130.203125 79.007812 130.460938 C 79.265625 130.714844 79.546875 130.945312 79.847656 131.148438 C 80.152344 131.351562 80.46875 131.519531 80.804688 131.660156 C 81.140625 131.800781 81.488281 131.902344 81.84375 131.976562 C 82.203125 132.046875 82.5625 132.082031 82.925781 132.082031 C 83.289062 132.082031 83.648438 132.046875 84.007812 131.976562 C 84.363281 131.902344 84.710938 131.800781 85.046875 131.660156 C 85.382812 131.519531 85.699219 131.351562 86.003906 131.148438 C 86.304688 130.945312 86.585938 130.714844 86.84375 130.460938 C 87.101562 130.203125 87.328125 129.921875 87.53125 129.621094 C 87.734375 129.316406 87.90625 128.996094 88.042969 128.660156 C 88.183594 128.324219 88.289062 127.980469 88.359375 127.621094 C 88.429688 127.265625 88.464844 126.90625 88.464844 126.542969 C 88.464844 126.179688 88.429688 125.816406 88.359375 125.460938 C 88.289062 125.105469 88.183594 124.757812 88.042969 124.421875 C 87.90625 124.085938 87.734375 123.765625 87.53125 123.464844 C 87.328125 123.160156 87.101562 122.882812 86.84375 122.625 C 86.585938 122.367188 86.304688 122.136719 86.003906 121.9375 C 85.699219 121.734375 85.382812 121.5625 85.046875 121.421875 C 84.710938 121.285156 84.363281 121.179688 84.007812 121.109375 C 83.648438 121.039062 83.289062 121 82.925781 121 Z M 82.925781 121 "/>
<path style=" stroke:none;fill-rule:nonzero;fill:rgb(100%,91.758728%,0%);fill-opacity:1;" d="M 134.949219 151.867188 C 134.585938 151.867188 134.226562 151.902344 133.871094 151.976562 C 133.511719 152.046875 133.167969 152.152344 132.832031 152.289062 C 132.496094 152.429688 132.175781 152.601562 131.871094 152.800781 C 131.570312 153.003906 131.289062 153.234375 131.035156 153.492188 C 130.777344 153.746094 130.546875 154.027344 130.34375 154.332031 C 130.140625 154.632812 129.972656 154.953125 129.832031 155.289062 C 129.691406 155.625 129.589844 155.96875 129.515625 156.328125 C 129.445312 156.683594 129.410156 157.042969 129.410156 157.40625 C 129.410156 157.773438 129.445312 158.132812 129.515625 158.488281 C 129.589844 158.84375 129.691406 159.191406 129.832031 159.527344 C 129.972656 159.863281 130.140625 160.183594 130.34375 160.484375 C 130.546875 160.789062 130.777344 161.066406 131.035156 161.324219 C 131.289062 161.582031 131.570312 161.8125 131.871094 162.015625 C 132.175781 162.214844 132.496094 162.386719 132.832031 162.527344 C 133.167969 162.664062 133.511719 162.769531 133.871094 162.839844 C 134.226562 162.914062 134.585938 162.949219 134.949219 162.949219 C 135.3125 162.949219 135.675781 162.914062 136.03125 162.839844 C 136.386719 162.769531 136.734375 162.664062 137.070312 162.527344 C 137.40625 162.386719 137.726562 162.214844 138.027344 162.015625 C 138.332031 161.8125 138.609375 161.582031 138.867188 161.324219 C 139.125 161.066406 139.355469 160.789062 139.558594 160.484375 C 139.757812 160.183594 139.929688 159.863281 140.070312 159.527344 C 140.207031 159.191406 140.3125 158.84375 140.382812 158.488281 C 140.453125 158.132812 140.492188 157.773438 140.492188 157.40625 C 140.492188 157.042969 140.453125 156.683594 140.382812 156.328125 C 140.3125 155.96875 140.207031 155.625 140.070312 155.289062 C 139.929688 154.953125 139.757812 154.632812 139.558594 154.332031 C 139.355469 154.027344 139.125 153.746094 138.867188 153.492188 C 138.609375 153.234375 138.332031 153.003906 138.027344 152.800781 C 137.726562 152.601562 137.40625 152.429688 137.070312 152.289062 C 136.734375 152.152344 136.386719 152.046875 136.03125 151.976562 C 135.675781 151.902344 135.3125 151.867188 134.949219 151.867188 Z M 134.949219 151.867188 "/>
<path style=" stroke:none;fill-rule:nonzero;fill:rgb(100%,91.758728%,0%);fill-opacity:1;" d="M 188.480469 120.253906 C 188.117188 120.253906 187.753906 120.289062 187.398438 120.359375 C 187.042969 120.429688 186.695312 120.535156 186.359375 120.671875 C 186.023438 120.8125 185.703125 120.984375 185.402344 121.1875 C 185.097656 121.386719 184.820312 121.617188 184.5625 121.875 C 184.304688 122.132812 184.074219 122.410156 183.875 122.714844 C 183.671875 123.015625 183.5 123.335938 183.363281 123.671875 C 183.222656 124.007812 183.117188 124.355469 183.046875 124.710938 C 182.976562 125.066406 182.941406 125.429688 182.941406 125.792969 C 182.941406 126.15625 182.976562 126.515625 183.046875 126.871094 C 183.117188 127.230469 183.222656 127.574219 183.363281 127.910156 C 183.5 128.246094 183.671875 128.566406 183.875 128.871094 C 184.074219 129.171875 184.304688 129.453125 184.5625 129.710938 C 184.820312 129.964844 185.097656 130.195312 185.402344 130.398438 C 185.703125 130.601562 186.023438 130.769531 186.359375 130.910156 C 186.695312 131.050781 187.042969 131.15625 187.398438 131.226562 C 187.753906 131.296875 188.117188 131.332031 188.480469 131.332031 C 188.84375 131.332031 189.203125 131.296875 189.558594 131.226562 C 189.917969 131.15625 190.261719 131.050781 190.597656 130.910156 C 190.933594 130.769531 191.253906 130.601562 191.558594 130.398438 C 191.859375 130.195312 192.140625 129.964844 192.398438 129.710938 C 192.652344 129.453125 192.882812 129.171875 193.085938 128.871094 C 193.289062 128.566406 193.457031 128.246094 193.597656 127.910156 C 193.738281 127.574219 193.84375 127.230469 193.914062 126.871094 C 193.984375 126.515625 194.019531 126.15625 194.019531 125.792969 C 194.019531 125.429688 193.984375 125.066406 193.914062 124.710938 C 193.84375 124.355469 193.738281 124.007812 193.597656 123.671875 C 193.457031 123.335938 193.289062 123.015625 193.085938 122.714844 C 192.882812 122.410156 192.652344 122.132812 192.398438 121.875 C 192.140625 121.617188 191.859375 121.386719 191.558594 121.1875 C 191.253906 120.984375 190.933594 120.8125 190.597656 120.671875 C 190.261719 120.535156 189.917969 120.429688 189.558594 120.359375 C 189.203125 120.289062 188.84375 120.253906 188.480469 120.253906 Z M 188.480469 120.253906 "/>
<path style=" stroke:none;fill-rule:nonzero;fill:rgb(100%,91.758728%,0%);fill-opacity:1;" d="M 134.199219 212.285156 C 133.835938 212.285156 133.476562 212.320312 133.121094 212.390625 C 132.761719 212.464844 132.417969 212.570312 132.082031 212.707031 C 131.746094 212.847656 131.425781 213.015625 131.121094 213.21875 C 130.820312 213.421875 130.539062 213.652344 130.285156 213.910156 C 130.027344 214.164062 129.796875 214.445312 129.59375 214.75 C 129.390625 215.050781 129.222656 215.371094 129.082031 215.707031 C 128.941406 216.042969 128.839844 216.386719 128.765625 216.746094 C 128.695312 217.101562 128.660156 217.460938 128.660156 217.824219 C 128.660156 218.191406 128.695312 218.550781 128.765625 218.90625 C 128.839844 219.261719 128.941406 219.609375 129.082031 219.945312 C 129.222656 220.28125 129.390625 220.601562 129.59375 220.902344 C 129.796875 221.207031 130.027344 221.484375 130.285156 221.742188 C 130.539062 222 130.820312 222.230469 131.121094 222.433594 C 131.425781 222.632812 131.746094 222.804688 132.082031 222.945312 C 132.417969 223.082031 132.761719 223.1875 133.121094 223.257812 C 133.476562 223.332031 133.835938 223.367188 134.199219 223.367188 C 134.5625 223.367188 134.925781 223.332031 135.28125 223.257812 C 135.636719 223.1875 135.984375 223.082031 136.320312 222.945312 C 136.65625 222.804688 136.976562 222.632812 137.277344 222.433594 C 137.582031 222.230469 137.859375 222 138.117188 221.742188 C 138.375 221.484375 138.605469 221.207031 138.808594 220.902344 C 139.007812 220.601562 139.179688 220.28125 139.320312 219.945312 C 139.457031 219.609375 139.5625 219.261719 139.632812 218.90625 C 139.703125 218.550781 139.742188 218.191406 139.742188 217.824219 C 139.742188 217.460938 139.703125 217.101562 139.632812 216.746094 C 139.5625 216.386719 139.457031 216.042969 139.320312 215.707031 C 139.179688 215.371094 139.007812 215.050781 138.808594 214.75 C 138.605469 214.445312 138.375 214.164062 138.117188 213.910156 C 137.859375 213.652344 137.582031 213.421875 137.277344 213.21875 C 136.976562 213.015625 136.65625 212.847656 136.320312 212.707031 C 135.984375 212.570312 135.636719 212.464844 135.28125 212.390625 C 134.925781 212.320312 134.5625 212.285156 134.199219 212.285156 Z M 134.199219 212.285156 "/>
<path style=" stroke:none;fill-rule:nonzero;fill:rgb(100%,91.758728%,0%);fill-opacity:1;" d="M 28.523438 151.867188 C 28.160156 151.867188 27.800781 151.902344 27.441406 151.976562 C 27.085938 152.046875 26.738281 152.152344 26.402344 152.289062 C 26.066406 152.429688 25.75 152.601562 25.445312 152.800781 C 25.144531 153.003906 24.863281 153.234375 24.605469 153.492188 C 24.347656 153.746094 24.121094 154.027344 23.917969 154.332031 C 23.714844 154.632812 23.542969 154.953125 23.40625 155.289062 C 23.265625 155.625 23.160156 155.96875 23.089844 156.328125 C 23.019531 156.683594 22.984375 157.042969 22.984375 157.40625 C 22.984375 157.773438 23.019531 158.132812 23.089844 158.488281 C 23.160156 158.84375 23.265625 159.191406 23.40625 159.527344 C 23.542969 159.863281 23.714844 160.183594 23.917969 160.484375 C 24.121094 160.789062 24.347656 161.066406 24.605469 161.324219 C 24.863281 161.582031 25.144531 161.8125 25.445312 162.015625 C 25.75 162.214844 26.066406 162.386719 26.402344 162.527344 C 26.738281 162.664062 27.085938 162.769531 27.441406 162.839844 C 27.800781 162.914062 28.160156 162.949219 28.523438 162.949219 C 28.886719 162.949219 29.246094 162.914062 29.605469 162.839844 C 29.960938 162.769531 30.308594 162.664062 30.644531 162.527344 C 30.980469 162.386719 31.300781 162.214844 31.601562 162.015625 C 31.902344 161.8125 32.183594 161.582031 32.441406 161.324219 C 32.699219 161.066406 32.925781 160.789062 33.128906 160.484375 C 33.332031 160.183594 33.503906 159.863281 33.640625 159.527344 C 33.78125 159.191406 33.886719 158.84375 33.957031 158.488281 C 34.027344 158.132812 34.0625 157.773438 34.0625 157.40625 C 34.0625 157.042969 34.027344 156.683594 33.957031 156.328125 C 33.886719 155.96875 33.78125 155.625 33.640625 155.289062 C 33.503906 154.953125 33.332031 154.632812 33.128906 154.332031 C 32.925781 154.027344 32.699219 153.746094 32.441406 153.492188 C 32.183594 153.234375 31.902344 153.003906 31.601562 152.800781 C 31.300781 152.601562 30.980469 152.429688 30.644531 152.289062 C 30.308594 152.152344 29.960938 152.046875 29.605469 151.976562 C 29.246094 151.902344 28.886719 151.867188 28.523438 151.867188 Z M 28.523438 151.867188 "/>
<path style=" stroke:none;fill-rule:nonzero;fill:rgb(100%,91.758728%,0%);fill-opacity:1;" d="M 27.773438 212.285156 C 27.410156 212.285156 27.050781 212.320312 26.691406 212.390625 C 26.335938 212.464844 25.988281 212.570312 25.652344 212.707031 C 25.316406 212.847656 25 213.015625 24.695312 213.21875 C 24.394531 213.421875 24.113281 213.652344 23.855469 213.910156 C 23.597656 214.164062 23.371094 214.445312 23.167969 214.75 C 22.964844 215.050781 22.792969 215.371094 22.65625 215.707031 C 22.515625 216.042969 22.410156 216.386719 22.339844 216.746094 C 22.269531 217.101562 22.234375 217.460938 22.234375 217.824219 C 22.234375 218.191406 22.269531 218.550781 22.339844 218.90625 C 22.410156 219.261719 22.515625 219.609375 22.65625 219.945312 C 22.792969 220.28125 22.964844 220.601562 23.167969 220.902344 C 23.371094 221.207031 23.597656 221.484375 23.855469 221.742188 C 24.113281 222 24.394531 222.230469 24.695312 222.433594 C 25 222.632812 25.316406 222.804688 25.652344 222.945312 C 25.988281 223.082031 26.335938 223.1875 26.691406 223.257812 C 27.050781 223.332031 27.410156 223.367188 27.773438 223.367188 C 28.136719 223.367188 28.496094 223.332031 28.855469 223.257812 C 29.210938 223.1875 29.558594 223.082031 29.894531 222.945312 C 30.230469 222.804688 30.550781 222.632812 30.851562 222.433594 C 31.152344 222.230469 31.433594 222 31.691406 221.742188 C 31.949219 221.484375 32.179688 221.207031 32.378906 220.902344 C 32.582031 220.601562 32.753906 220.28125 32.890625 219.945312 C 33.03125 219.609375 33.136719 219.261719 33.207031 218.90625 C 33.277344 218.550781 33.3125 218.191406 33.3125 217.824219 C 33.3125 217.460938 33.277344 217.101562 33.207031 216.746094 C 33.136719 216.386719 33.03125 216.042969 32.890625 215.707031 C 32.753906 215.371094 32.582031 215.050781 32.378906 214.75 C 32.179688 214.445312 31.949219 214.164062 31.691406 213.910156 C 31.433594 213.652344 31.152344 213.421875 30.851562 213.21875 C 30.550781 213.015625 30.230469 212.847656 29.894531 212.707031 C 29.558594 212.570312 29.210938 212.464844 28.855469 212.390625 C 28.496094 212.320312 28.136719 212.285156 27.773438 212.285156 Z M 27.773438 212.285156 "/>
<path style=" stroke:none;fill-rule:nonzero;fill:rgb(100%,91.758728%,0%);fill-opacity:1;" d="M 80.859375 242.960938 C 80.496094 242.960938 80.136719 242.996094 79.78125 243.066406 C 79.421875 243.136719 79.078125 243.242188 78.742188 243.382812 C 78.40625 243.519531 78.085938 243.691406 77.785156 243.894531 C 77.480469 244.097656 77.199219 244.324219 76.945312 244.582031 C 76.6875 244.839844 76.457031 245.121094 76.253906 245.421875 C 76.050781 245.722656 75.882812 246.042969 75.742188 246.378906 C 75.605469 246.714844 75.5 247.0625 75.425781 247.417969 C 75.355469 247.777344 75.320312 248.136719 75.320312 248.5 C 75.320312 248.863281 75.355469 249.222656 75.425781 249.582031 C 75.5 249.9375 75.605469 250.285156 75.742188 250.621094 C 75.882812 250.957031 76.050781 251.273438 76.253906 251.578125 C 76.457031 251.878906 76.6875 252.160156 76.945312 252.417969 C 77.199219 252.675781 77.480469 252.902344 77.785156 253.105469 C 78.085938 253.308594 78.40625 253.480469 78.742188 253.617188 C 79.078125 253.757812 79.421875 253.863281 79.78125 253.933594 C 80.136719 254.003906 80.496094 254.039062 80.859375 254.039062 C 81.226562 254.039062 81.585938 254.003906 81.941406 253.933594 C 82.296875 253.863281 82.644531 253.757812 82.980469 253.617188 C 83.316406 253.480469 83.636719 253.308594 83.9375 253.105469 C 84.242188 252.902344 84.519531 252.675781 84.777344 252.417969 C 85.035156 252.160156 85.265625 251.878906 85.46875 251.578125 C 85.667969 251.273438 85.839844 250.957031 85.980469 250.621094 C 86.117188 250.285156 86.222656 249.9375 86.292969 249.582031 C 86.367188 249.222656 86.402344 248.863281 86.402344 248.5 C 86.402344 248.136719 86.367188 247.777344 86.292969 247.417969 C 86.222656 247.0625 86.117188 246.714844 85.980469 246.378906 C 85.839844 246.042969 85.667969 245.722656 85.46875 245.421875 C 85.265625 245.121094 85.035156 244.839844 84.777344 244.582031 C 84.519531 244.324219 84.242188 244.097656 83.9375 243.894531 C 83.636719 243.691406 83.316406 243.519531 82.980469 243.382812 C 82.644531 243.242188 82.296875 243.136719 81.941406 243.066406 C 81.585938 242.996094 81.226562 242.960938 80.859375 242.960938 Z M 80.859375 242.960938 "/>
<path style=" stroke:none;fill-rule:nonzero;fill:rgb(100%,91.758728%,0%);fill-opacity:1;" d="M 190.269531 244.070312 C 189.90625 244.070312 189.546875 244.105469 189.1875 244.175781 C 188.832031 244.246094 188.484375 244.351562 188.148438 244.492188 C 187.8125 244.628906 187.496094 244.800781 187.191406 245.003906 C 186.890625 245.207031 186.609375 245.433594 186.351562 245.691406 C 186.09375 245.949219 185.867188 246.230469 185.664062 246.53125 C 185.460938 246.835938 185.292969 247.152344 185.152344 247.488281 C 185.011719 247.824219 184.90625 248.171875 184.835938 248.527344 C 184.765625 248.886719 184.730469 249.246094 184.730469 249.609375 C 184.730469 249.972656 184.765625 250.332031 184.835938 250.691406 C 184.90625 251.046875 185.011719 251.394531 185.152344 251.730469 C 185.292969 252.066406 185.460938 252.386719 185.664062 252.6875 C 185.867188 252.988281 186.09375 253.269531 186.351562 253.527344 C 186.609375 253.785156 186.890625 254.015625 187.191406 254.214844 C 187.496094 254.417969 187.8125 254.589844 188.148438 254.726562 C 188.484375 254.867188 188.832031 254.972656 189.1875 255.042969 C 189.546875 255.113281 189.90625 255.148438 190.269531 255.148438 C 190.632812 255.148438 190.992188 255.113281 191.351562 255.042969 C 191.707031 254.972656 192.054688 254.867188 192.390625 254.726562 C 192.726562 254.589844 193.046875 254.417969 193.347656 254.214844 C 193.648438 254.015625 193.929688 253.785156 194.1875 253.527344 C 194.445312 253.269531 194.675781 252.988281 194.875 252.6875 C 195.078125 252.386719 195.25 252.066406 195.386719 251.730469 C 195.527344 251.394531 195.632812 251.046875 195.703125 250.691406 C 195.773438 250.332031 195.808594 249.972656 195.808594 249.609375 C 195.808594 249.246094 195.773438 248.886719 195.703125 248.527344 C 195.632812 248.171875 195.527344 247.824219 195.386719 247.488281 C 195.25 247.152344 195.078125 246.835938 194.875 246.53125 C 194.675781 246.230469 194.445312 245.949219 194.1875 245.691406 C 193.929688 245.433594 193.648438 245.207031 193.347656 245.003906 C 193.046875 244.800781 192.726562 244.628906 192.390625 244.492188 C 192.054688 244.351562 191.707031 244.246094 191.351562 244.175781 C 190.992188 244.105469 190.632812 244.070312 190.269531 244.070312 Z M 190.269531 244.070312 "/>
<path style=" stroke:none;fill-rule:nonzero;fill:rgb(100%,91.758728%,0%);fill-opacity:1;" d="M 1234.363281 102.863281 C 1234 102.863281 1233.640625 102.898438 1233.28125 102.96875 C 1232.925781 103.039062 1232.578125 103.144531 1232.242188 103.285156 C 1231.90625 103.425781 1231.585938 103.59375 1231.285156 103.796875 C 1230.984375 104 1230.703125 104.226562 1230.445312 104.484375 C 1230.1875 104.742188 1229.957031 105.023438 1229.757812 105.324219 C 1229.554688 105.628906 1229.382812 105.945312 1229.246094 106.28125 C 1229.105469 106.617188 1229 106.964844 1228.929688 107.320312 C 1228.859375 107.679688 1228.824219 108.039062 1228.824219 108.402344 C 1228.824219 108.765625 1228.859375 109.125 1228.929688 109.484375 C 1229 109.839844 1229.105469 110.1875 1229.246094 110.523438 C 1229.382812 110.859375 1229.554688 111.179688 1229.757812 111.480469 C 1229.957031 111.78125 1230.1875 112.0625 1230.445312 112.320312 C 1230.703125 112.578125 1230.984375 112.808594 1231.285156 113.007812 C 1231.585938 113.210938 1231.90625 113.382812 1232.242188 113.519531 C 1232.578125 113.660156 1232.925781 113.765625 1233.28125 113.835938 C 1233.640625 113.90625 1234 113.941406 1234.363281 113.941406 C 1234.726562 113.941406 1235.085938 113.90625 1235.445312 113.835938 C 1235.800781 113.765625 1236.148438 113.660156 1236.484375 113.519531 C 1236.820312 113.382812 1237.136719 113.210938 1237.441406 113.007812 C 1237.742188 112.808594 1238.023438 112.578125 1238.28125 112.320312 C 1238.539062 112.0625 1238.765625 111.78125 1238.96875 111.480469 C 1239.171875 111.179688 1239.339844 110.859375 1239.480469 110.523438 C 1239.621094 110.1875 1239.726562 109.839844 1239.796875 109.484375 C 1239.867188 109.125 1239.902344 108.765625 1239.902344 108.402344 C 1239.902344 108.039062 1239.867188 107.679688 1239.796875 107.320312 C 1239.726562 106.964844 1239.621094 106.617188 1239.480469 106.28125 C 1239.339844 105.945312 1239.171875 105.628906 1238.96875 105.324219 C 1238.765625 105.023438 1238.539062 104.742188 1238.28125 104.484375 C 1238.023438 104.226562 1237.742188 104 1237.441406 103.796875 C 1237.136719 103.59375 1236.820312 103.425781 1236.484375 103.285156 C 1236.148438 103.144531 1235.800781 103.039062 1235.445312 102.96875 C 1235.085938 102.898438 1234.726562 102.863281 1234.363281 102.863281 Z M 1234.363281 102.863281 "/>
<path style=" stroke:none;fill-rule:nonzero;fill:rgb(100%,91.758728%,0%);fill-opacity:1;" d="M 243.84375 334.800781 C 243.480469 334.800781 243.121094 334.835938 242.761719 334.90625 C 242.40625 334.976562 242.058594 335.082031 241.722656 335.222656 C 241.386719 335.359375 241.070312 335.53125 240.765625 335.734375 C 240.464844 335.933594 240.183594 336.164062 239.925781 336.421875 C 239.667969 336.679688 239.441406 336.960938 239.238281 337.261719 C 239.035156 337.5625 238.863281 337.882812 238.726562 338.21875 C 238.585938 338.554688 238.480469 338.902344 238.410156 339.257812 C 238.339844 339.613281 238.304688 339.976562 238.304688 340.339844 C 238.304688 340.703125 238.339844 341.0625 238.410156 341.421875 C 238.480469 341.777344 238.585938 342.125 238.726562 342.460938 C 238.863281 342.796875 239.035156 343.113281 239.238281 343.417969 C 239.441406 343.71875 239.667969 344 239.925781 344.257812 C 240.183594 344.515625 240.464844 344.742188 240.765625 344.945312 C 241.070312 345.148438 241.386719 345.316406 241.722656 345.457031 C 242.058594 345.597656 242.40625 345.703125 242.761719 345.773438 C 243.121094 345.84375 243.480469 345.878906 243.84375 345.878906 C 244.207031 345.878906 244.566406 345.84375 244.925781 345.773438 C 245.28125 345.703125 245.628906 345.597656 245.964844 345.457031 C 246.300781 345.316406 246.617188 345.148438 246.921875 344.945312 C 247.222656 344.742188 247.503906 344.515625 247.761719 344.257812 C 248.019531 344 248.246094 343.71875 248.449219 343.417969 C 248.652344 343.113281 248.824219 342.796875 248.960938 342.460938 C 249.101562 342.125 249.207031 341.777344 249.277344 341.421875 C 249.347656 341.0625 249.382812 340.703125 249.382812 340.339844 C 249.382812 339.976562 249.347656 339.613281 249.277344 339.257812 C 249.207031 338.902344 249.101562 338.554688 248.960938 338.21875 C 248.824219 337.882812 248.652344 337.5625 248.449219 337.261719 C 248.246094 336.960938 248.019531 336.679688 247.761719 336.421875 C 247.503906 336.164062 247.222656 335.933594 246.921875 335.734375 C 246.617188 335.53125 246.300781 335.359375 245.964844 335.222656 C 245.628906 335.082031 245.28125 334.976562 244.925781 334.90625 C 244.566406 334.835938 244.207031 334.800781 243.84375 334.800781 Z M 243.84375 334.800781 "/>
<path style=" stroke:none;fill-rule:nonzero;fill:rgb(100%,91.758728%,0%);fill-opacity:1;" d="M 191.769531 304.515625 C 191.40625 304.515625 191.046875 304.550781 190.6875 304.621094 C 190.332031 304.691406 189.984375 304.796875 189.648438 304.9375 C 189.3125 305.074219 188.996094 305.246094 188.691406 305.449219 C 188.390625 305.652344 188.109375 305.878906 187.851562 306.136719 C 187.59375 306.394531 187.367188 306.675781 187.164062 306.976562 C 186.960938 307.28125 186.789062 307.597656 186.652344 307.933594 C 186.511719 308.269531 186.40625 308.617188 186.335938 308.972656 C 186.265625 309.332031 186.230469 309.691406 186.230469 310.054688 C 186.230469 310.417969 186.265625 310.777344 186.335938 311.136719 C 186.40625 311.492188 186.511719 311.839844 186.652344 312.175781 C 186.789062 312.511719 186.960938 312.832031 187.164062 313.132812 C 187.367188 313.433594 187.59375 313.714844 187.851562 313.972656 C 188.109375 314.230469 188.390625 314.460938 188.691406 314.660156 C 188.996094 314.863281 189.3125 315.035156 189.648438 315.171875 C 189.984375 315.3125 190.332031 315.417969 190.6875 315.488281 C 191.046875 315.558594 191.40625 315.59375 191.769531 315.59375 C 192.132812 315.59375 192.492188 315.558594 192.851562 315.488281 C 193.207031 315.417969 193.554688 315.3125 193.890625 315.171875 C 194.226562 315.035156 194.546875 314.863281 194.847656 314.660156 C 195.148438 314.460938 195.429688 314.230469 195.6875 313.972656 C 195.945312 313.714844 196.175781 313.433594 196.375 313.132812 C 196.578125 312.832031 196.75 312.511719 196.886719 312.175781 C 197.027344 311.839844 197.132812 311.492188 197.203125 311.136719 C 197.273438 310.777344 197.308594 310.417969 197.308594 310.054688 C 197.308594 309.691406 197.273438 309.332031 197.203125 308.972656 C 197.132812 308.617188 197.027344 308.269531 196.886719 307.933594 C 196.75 307.597656 196.578125 307.28125 196.375 306.976562 C 196.175781 306.675781 195.945312 306.394531 195.6875 306.136719 C 195.429688 305.878906 195.148438 305.652344 194.847656 305.449219 C 194.546875 305.246094 194.226562 305.074219 193.890625 304.9375 C 193.554688 304.796875 193.207031 304.691406 192.851562 304.621094 C 192.492188 304.550781 192.132812 304.515625 191.769531 304.515625 Z M 191.769531 304.515625 "/>
<path style=" stroke:none;fill-rule:nonzero;fill:rgb(100%,91.758728%,0%);fill-opacity:1;" d="M 91.464844 358.335938 C 91.101562 358.335938 90.742188 358.371094 90.382812 358.441406 C 90.027344 358.511719 89.679688 358.617188 89.34375 358.757812 C 89.007812 358.894531 88.691406 359.066406 88.386719 359.269531 C 88.085938 359.472656 87.804688 359.699219 87.546875 359.957031 C 87.289062 360.214844 87.0625 360.496094 86.859375 360.796875 C 86.65625 361.101562 86.484375 361.417969 86.347656 361.753906 C 86.207031 362.089844 86.101562 362.4375 86.03125 362.792969 C 85.960938 363.152344 85.925781 363.511719 85.925781 363.875 C 85.925781 364.238281 85.960938 364.597656 86.03125 364.957031 C 86.101562 365.3125 86.207031 365.660156 86.347656 365.996094 C 86.484375 366.332031 86.65625 366.648438 86.859375 366.953125 C 87.0625 367.253906 87.289062 367.535156 87.546875 367.792969 C 87.804688 368.050781 88.085938 368.277344 88.386719 368.480469 C 88.691406 368.683594 89.007812 368.855469 89.34375 368.992188 C 89.679688 369.132812 90.027344 369.238281 90.382812 369.308594 C 90.742188 369.378906 91.101562 369.414062 91.464844 369.414062 C 91.828125 369.414062 92.1875 369.378906 92.546875 369.308594 C 92.902344 369.238281 93.25 369.132812 93.585938 368.992188 C 93.921875 368.855469 94.242188 368.683594 94.542969 368.480469 C 94.84375 368.277344 95.125 368.050781 95.382812 367.792969 C 95.640625 367.535156 95.867188 367.253906 96.070312 366.953125 C 96.273438 366.648438 96.445312 366.332031 96.582031 365.996094 C 96.722656 365.660156 96.828125 365.3125 96.898438 364.957031 C 96.96875 364.597656 97.003906 364.238281 97.003906 363.875 C 97.003906 363.511719 96.96875 363.152344 96.898438 362.792969 C 96.828125 362.4375 96.722656 362.089844 96.582031 361.753906 C 96.445312 361.417969 96.273438 361.101562 96.070312 360.796875 C 95.867188 360.496094 95.640625 360.214844 95.382812 359.957031 C 95.125 359.699219 94.84375 359.472656 94.542969 359.269531 C 94.242188 359.066406 93.921875 358.894531 93.585938 358.757812 C 93.25 358.617188 92.902344 358.511719 92.546875 358.441406 C 92.1875 358.371094 91.828125 358.335938 91.464844 358.335938 Z M 91.464844 358.335938 "/>
<path style=" stroke:none;fill-rule:nonzero;fill:rgb(100%,91.758728%,0%);fill-opacity:1;" d="M 61.675781 304.515625 C 61.3125 304.515625 60.949219 304.550781 60.59375 304.621094 C 60.238281 304.691406 59.890625 304.796875 59.554688 304.9375 C 59.21875 305.074219 58.898438 305.246094 58.597656 305.449219 C 58.292969 305.652344 58.015625 305.878906 57.757812 306.136719 C 57.5 306.394531 57.269531 306.675781 57.066406 306.976562 C 56.867188 307.28125 56.695312 307.597656 56.554688 307.933594 C 56.417969 308.269531 56.3125 308.617188 56.242188 308.972656 C 56.171875 309.332031 56.132812 309.691406 56.132812 310.054688 C 56.132812 310.417969 56.171875 310.777344 56.242188 311.136719 C 56.3125 311.492188 56.417969 311.839844 56.554688 312.175781 C 56.695312 312.511719 56.867188 312.832031 57.066406 313.132812 C 57.269531 313.433594 57.5 313.714844 57.757812 313.972656 C 58.015625 314.230469 58.292969 314.460938 58.597656 314.660156 C 58.898438 314.863281 59.21875 315.035156 59.554688 315.171875 C 59.890625 315.3125 60.238281 315.417969 60.59375 315.488281 C 60.949219 315.558594 61.3125 315.59375 61.675781 315.59375 C 62.039062 315.59375 62.398438 315.558594 62.753906 315.488281 C 63.113281 315.417969 63.457031 315.3125 63.792969 315.171875 C 64.128906 315.035156 64.449219 314.863281 64.753906 314.660156 C 65.054688 314.460938 65.335938 314.230469 65.589844 313.972656 C 65.847656 313.714844 66.078125 313.433594 66.28125 313.132812 C 66.484375 312.832031 66.652344 312.511719 66.792969 312.175781 C 66.933594 311.839844 67.035156 311.492188 67.109375 311.136719 C 67.179688 310.777344 67.214844 310.417969 67.214844 310.054688 C 67.214844 309.691406 67.179688 309.332031 67.109375 308.972656 C 67.035156 308.617188 66.933594 308.269531 66.792969 307.933594 C 66.652344 307.597656 66.484375 307.28125 66.28125 306.976562 C 66.078125 306.675781 65.847656 306.394531 65.589844 306.136719 C 65.335938 305.878906 65.054688 305.652344 64.753906 305.449219 C 64.449219 305.246094 64.128906 305.074219 63.792969 304.9375 C 63.457031 304.796875 63.113281 304.691406 62.753906 304.621094 C 62.398438 304.550781 62.039062 304.515625 61.675781 304.515625 Z M 61.675781 304.515625 "/>
<g clip-path="url(#clip1)" clip-rule="nonzero">
<path style=" stroke:none;fill-rule:nonzero;fill:rgb(100%,91.758728%,0%);fill-opacity:1;" d="M 3.457031 304.515625 C 3.09375 304.515625 2.734375 304.550781 2.378906 304.621094 C 2.019531 304.691406 1.675781 304.796875 1.339844 304.9375 C 1.003906 305.074219 0.683594 305.246094 0.378906 305.449219 C 0.078125 305.652344 -0.203125 305.878906 -0.460938 306.136719 C -0.714844 306.394531 -0.945312 306.675781 -1.148438 306.976562 C -1.351562 307.28125 -1.519531 307.597656 -1.660156 307.933594 C -1.800781 308.269531 -1.90625 308.617188 -1.976562 308.972656 C -2.046875 309.332031 -2.082031 309.691406 -2.082031 310.054688 C -2.082031 310.417969 -2.046875 310.777344 -1.976562 311.136719 C -1.90625 311.492188 -1.800781 311.839844 -1.660156 312.175781 C -1.519531 312.511719 -1.351562 312.832031 -1.148438 313.132812 C -0.945312 313.433594 -0.714844 313.714844 -0.460938 313.972656 C -0.203125 314.230469 0.078125 314.460938 0.378906 314.660156 C 0.683594 314.863281 1.003906 315.035156 1.339844 315.171875 C 1.675781 315.3125 2.019531 315.417969 2.378906 315.488281 C 2.734375 315.558594 3.09375 315.59375 3.457031 315.59375 C 3.820312 315.59375 4.183594 315.558594 4.539062 315.488281 C 4.894531 315.417969 5.242188 315.3125 5.578125 315.171875 C 5.914062 315.035156 6.234375 314.863281 6.535156 314.660156 C 6.839844 314.460938 7.117188 314.230469 7.375 313.972656 C 7.632812 313.714844 7.863281 313.433594 8.0625 313.132812 C 8.265625 312.832031 8.4375 312.511719 8.578125 312.175781 C 8.714844 311.839844 8.820312 311.492188 8.890625 311.136719 C 8.960938 310.777344 8.996094 310.417969 8.996094 310.054688 C 8.996094 309.691406 8.960938 309.332031 8.890625 308.972656 C 8.820312 308.617188 8.714844 308.269531 8.578125 307.933594 C 8.4375 307.597656 8.265625 307.28125 8.0625 306.976562 C 7.863281 306.675781 7.632812 306.394531 7.375 306.136719 C 7.117188 305.878906 6.839844 305.652344 6.535156 305.449219 C 6.234375 305.246094 5.914062 305.074219 5.578125 304.9375 C 5.242188 304.796875 4.894531 304.691406 4.539062 304.621094 C 4.183594 304.550781 3.820312 304.515625 3.457031 304.515625 Z M 3.457031 304.515625 "/>
</g>
<g clip-path="url(#clip2)" clip-rule="nonzero">
<path style=" stroke:none;fill-rule:nonzero;fill:rgb(100%,91.758728%,0%);fill-opacity:1;" d="M 0.167969 411.472656 C -0.195312 411.472656 -0.554688 411.507812 -0.914062 411.578125 C -1.269531 411.648438 -1.617188 411.753906 -1.953125 411.894531 C -2.289062 412.035156 -2.609375 412.203125 -2.910156 412.40625 C -3.210938 412.609375 -3.492188 412.835938 -3.75 413.09375 C -4.007812 413.351562 -4.238281 413.632812 -4.4375 413.933594 C -4.640625 414.238281 -4.8125 414.554688 -4.949219 414.890625 C -5.089844 415.226562 -5.195312 415.574219 -5.265625 415.929688 C -5.335938 416.289062 -5.371094 416.648438 -5.371094 417.011719 C -5.371094 417.375 -5.335938 417.734375 -5.265625 418.09375 C -5.195312 418.449219 -5.089844 418.796875 -4.949219 419.132812 C -4.8125 419.46875 -4.640625 419.789062 -4.4375 420.089844 C -4.238281 420.390625 -4.007812 420.671875 -3.75 420.929688 C -3.492188 421.1875 -3.210938 421.417969 -2.910156 421.617188 C -2.609375 421.820312 -2.289062 421.992188 -1.953125 422.128906 C -1.617188 422.269531 -1.269531 422.375 -0.914062 422.445312 C -0.554688 422.515625 -0.195312 422.550781 0.167969 422.550781 C 0.53125 422.550781 0.890625 422.515625 1.25 422.445312 C 1.605469 422.375 1.953125 422.269531 2.289062 422.128906 C 2.625 421.992188 2.941406 421.820312 3.246094 421.617188 C 3.546875 421.417969 3.828125 421.1875 4.085938 420.929688 C 4.34375 420.671875 4.570312 420.390625 4.773438 420.089844 C 4.976562 419.789062 5.148438 419.46875 5.285156 419.132812 C 5.425781 418.796875 5.53125 418.449219 5.601562 418.09375 C 5.671875 417.734375 5.707031 417.375 5.707031 417.011719 C 5.707031 416.648438 5.671875 416.289062 5.601562 415.929688 C 5.53125 415.574219 5.425781 415.226562 5.285156 414.890625 C 5.148438 414.554688 4.976562 414.238281 4.773438 413.933594 C 4.570312 413.632812 4.34375 413.351562 4.085938 413.09375 C 3.828125 412.835938 3.546875 412.609375 3.246094 412.40625 C 2.941406 412.203125 2.625 412.035156 2.289062 411.894531 C 1.953125 411.753906 1.605469 411.648438 1.25 411.578125 C 0.890625 411.507812 0.53125 411.472656 0.167969 411.472656 Z M 0.167969 411.472656 "/>
</g>
<path style=" stroke:none;fill-rule:nonzero;fill:rgb(100%,91.758728%,0%);fill-opacity:1;" d="M 60.925781 409.683594 C 60.5625 409.683594 60.199219 409.71875 59.84375 409.789062 C 59.488281 409.859375 59.140625 409.964844 58.804688 410.105469 C 58.46875 410.242188 58.148438 410.414062 57.847656 410.617188 C 57.542969 410.816406 57.265625 411.046875 57.007812 411.304688 C 56.75 411.5625 56.519531 411.839844 56.320312 412.144531 C 56.117188 412.445312 55.945312 412.765625 55.804688 413.101562 C 55.667969 413.4375 55.5625 413.785156 55.492188 414.140625 C 55.421875 414.496094 55.386719 414.859375 55.386719 415.222656 C 55.386719 415.585938 55.421875 415.945312 55.492188 416.300781 C 55.5625 416.660156 55.667969 417.003906 55.804688 417.339844 C 55.945312 417.675781 56.117188 417.996094 56.320312 418.300781 C 56.519531 418.601562 56.75 418.882812 57.007812 419.140625 C 57.265625 419.394531 57.542969 419.625 57.847656 419.828125 C 58.148438 420.03125 58.46875 420.199219 58.804688 420.339844 C 59.140625 420.480469 59.488281 420.585938 59.84375 420.65625 C 60.199219 420.726562 60.5625 420.761719 60.925781 420.761719 C 61.289062 420.761719 61.648438 420.726562 62.003906 420.65625 C 62.363281 420.585938 62.707031 420.480469 63.042969 420.339844 C 63.378906 420.199219 63.699219 420.03125 64.003906 419.828125 C 64.304688 419.625 64.585938 419.394531 64.84375 419.140625 C 65.097656 418.882812 65.328125 418.601562 65.53125 418.300781 C 65.734375 417.996094 65.902344 417.675781 66.042969 417.339844 C 66.183594 417.003906 66.289062 416.660156 66.359375 416.300781 C 66.429688 415.945312 66.464844 415.585938 66.464844 415.222656 C 66.464844 414.859375 66.429688 414.496094 66.359375 414.140625 C 66.289062 413.785156 66.183594 413.4375 66.042969 413.101562 C 65.902344 412.765625 65.734375 412.445312 65.53125 412.144531 C 65.328125 411.839844 65.097656 411.5625 64.84375 411.304688 C 64.585938 411.046875 64.304688 410.816406 64.003906 410.617188 C 63.699219 410.414062 63.378906 410.242188 63.042969 410.105469 C 62.707031 409.964844 62.363281 409.859375 62.003906 409.789062 C 61.648438 409.71875 61.289062 409.683594 60.925781 409.683594 Z M 60.925781 409.683594 "/>
<path style=" stroke:none;fill-rule:nonzero;fill:rgb(100%,91.758728%,0%);fill-opacity:1;" d="M 296.746094 304.515625 C 296.382812 304.515625 296.023438 304.550781 295.664062 304.621094 C 295.308594 304.691406 294.960938 304.796875 294.625 304.9375 C 294.289062 305.074219 293.972656 305.246094 293.667969 305.449219 C 293.367188 305.652344 293.085938 305.878906 292.828125 306.136719 C 292.570312 306.394531 292.34375 306.675781 292.140625 306.976562 C 291.9375 307.28125 291.765625 307.597656 291.628906 307.933594 C 291.488281 308.269531 291.382812 308.617188 291.3125 308.972656 C 291.242188 309.332031 291.207031 309.691406 291.207031 310.054688 C 291.207031 310.417969 291.242188 310.777344 291.3125 311.136719 C 291.382812 311.492188 291.488281 311.839844 291.628906 312.175781 C 291.765625 312.511719 291.9375 312.832031 292.140625 313.132812 C 292.34375 313.433594 292.570312 313.714844 292.828125 313.972656 C 293.085938 314.230469 293.367188 314.460938 293.667969 314.660156 C 293.972656 314.863281 294.289062 315.035156 294.625 315.171875 C 294.960938 315.3125 295.308594 315.417969 295.664062 315.488281 C 296.023438 315.558594 296.382812 315.59375 296.746094 315.59375 C 297.109375 315.59375 297.46875 315.558594 297.828125 315.488281 C 298.183594 315.417969 298.53125 315.3125 298.867188 315.171875 C 299.203125 315.035156 299.519531 314.863281 299.824219 314.660156 C 300.125 314.460938 300.40625 314.230469 300.664062 313.972656 C 300.921875 313.714844 301.148438 313.433594 301.351562 313.132812 C 301.554688 312.832031 301.726562 312.511719 301.863281 312.175781 C 302.003906 311.839844 302.109375 311.492188 302.179688 311.136719 C 302.25 310.777344 302.285156 310.417969 302.285156 310.054688 C 302.285156 309.691406 302.25 309.332031 302.179688 308.972656 C 302.109375 308.617188 302.003906 308.269531 301.863281 307.933594 C 301.726562 307.597656 301.554688 307.28125 301.351562 306.976562 C 301.148438 306.675781 300.921875 306.394531 300.664062 306.136719 C 300.40625 305.878906 300.125 305.652344 299.824219 305.449219 C 299.519531 305.246094 299.203125 305.074219 298.867188 304.9375 C 298.53125 304.796875 298.183594 304.691406 297.828125 304.621094 C 297.46875 304.550781 297.109375 304.515625 296.746094 304.515625 Z M 296.746094 304.515625 "/>
<path style=" stroke:none;fill-rule:nonzero;fill:rgb(100%,91.758728%,0%);fill-opacity:1;" d="M 244.714844 213.035156 C 244.351562 213.035156 243.992188 213.070312 243.636719 213.140625 C 243.277344 213.214844 242.933594 213.316406 242.597656 213.457031 C 242.261719 213.597656 241.941406 213.765625 241.640625 213.96875 C 241.335938 214.171875 241.058594 214.402344 240.800781 214.660156 C 240.542969 214.914062 240.3125 215.195312 240.109375 215.496094 C 239.910156 215.800781 239.738281 216.121094 239.597656 216.457031 C 239.460938 216.792969 239.355469 217.136719 239.285156 217.496094 C 239.210938 217.851562 239.175781 218.210938 239.175781 218.574219 C 239.175781 218.9375 239.210938 219.300781 239.285156 219.65625 C 239.355469 220.011719 239.460938 220.359375 239.597656 220.695312 C 239.738281 221.03125 239.910156 221.351562 240.109375 221.652344 C 240.3125 221.957031 240.542969 222.234375 240.800781 222.492188 C 241.058594 222.75 241.335938 222.980469 241.640625 223.183594 C 241.941406 223.382812 242.261719 223.554688 242.597656 223.695312 C 242.933594 223.832031 243.277344 223.9375 243.636719 224.007812 C 243.992188 224.078125 244.351562 224.117188 244.714844 224.117188 C 245.082031 224.117188 245.441406 224.078125 245.796875 224.007812 C 246.152344 223.9375 246.5 223.832031 246.835938 223.695312 C 247.171875 223.554688 247.492188 223.382812 247.792969 223.183594 C 248.097656 222.980469 248.375 222.75 248.632812 222.492188 C 248.890625 222.234375 249.121094 221.957031 249.324219 221.652344 C 249.523438 221.351562 249.695312 221.03125 249.835938 220.695312 C 249.972656 220.359375 250.078125 220.011719 250.148438 219.65625 C 250.222656 219.300781 250.257812 218.9375 250.257812 218.574219 C 250.257812 218.210938 250.222656 217.851562 250.148438 217.496094 C 250.078125 217.136719 249.972656 216.792969 249.835938 216.457031 C 249.695312 216.121094 249.523438 215.800781 249.324219 215.496094 C 249.121094 215.195312 248.890625 214.914062 248.632812 214.660156 C 248.375 214.402344 248.097656 214.171875 247.792969 213.96875 C 247.492188 213.765625 247.171875 213.597656 246.835938 213.457031 C 246.5 213.316406 246.152344 213.214844 245.796875 213.140625 C 245.441406 213.070312 245.082031 213.035156 244.714844 213.035156 Z M 244.714844 213.035156 "/>
<path style=" stroke:none;fill-rule:nonzero;fill:rgb(100%,91.758728%,0%);fill-opacity:1;" d="M 296.746094 244.070312 C 296.382812 244.070312 296.023438 244.105469 295.664062 244.175781 C 295.308594 244.246094 294.960938 244.351562 294.625 244.492188 C 294.289062 244.628906 293.972656 244.800781 293.667969 245.003906 C 293.367188 245.207031 293.085938 245.433594 292.828125 245.691406 C 292.570312 245.949219 292.34375 246.230469 292.140625 246.53125 C 291.9375 246.835938 291.765625 247.152344 291.628906 247.488281 C 291.488281 247.824219 291.382812 248.171875 291.3125 248.527344 C 291.242188 248.886719 291.207031 249.246094 291.207031 249.609375 C 291.207031 249.972656 291.242188 250.332031 291.3125 250.691406 C 291.382812 251.046875 291.488281 251.394531 291.628906 251.730469 C 291.765625 252.066406 291.9375 252.386719 292.140625 252.6875 C 292.34375 252.988281 292.570312 253.269531 292.828125 253.527344 C 293.085938 253.785156 293.367188 254.015625 293.667969 254.214844 C 293.972656 254.417969 294.289062 254.589844 294.625 254.726562 C 294.960938 254.867188 295.308594 254.972656 295.664062 255.042969 C 296.023438 255.113281 296.382812 255.148438 296.746094 255.148438 C 297.109375 255.148438 297.46875 255.113281 297.828125 255.042969 C 298.183594 254.972656 298.53125 254.867188 298.867188 254.726562 C 299.203125 254.589844 299.519531 254.417969 299.824219 254.214844 C 300.125 254.015625 300.40625 253.785156 300.664062 253.527344 C 300.921875 253.269531 301.148438 252.988281 301.351562 252.6875 C 301.554688 252.386719 301.726562 252.066406 301.863281 251.730469 C 302.003906 251.394531 302.109375 251.046875 302.179688 250.691406 C 302.25 250.332031 302.285156 249.972656 302.285156 249.609375 C 302.285156 249.246094 302.25 248.886719 302.179688 248.527344 C 302.109375 248.171875 302.003906 247.824219 301.863281 247.488281 C 301.726562 247.152344 301.554688 246.835938 301.351562 246.53125 C 301.148438 246.230469 300.921875 245.949219 300.664062 245.691406 C 300.40625 245.433594 300.125 245.207031 299.824219 245.003906 C 299.519531 244.800781 299.203125 244.628906 298.867188 244.492188 C 298.53125 244.351562 298.183594 244.246094 297.828125 244.175781 C 297.46875 244.105469 297.109375 244.070312 296.746094 244.070312 Z M 296.746094 244.070312 "/>
<path style=" stroke:none;fill-rule:nonzero;fill:rgb(100%,91.758728%,0%);fill-opacity:1;" d="M 1269.023438 43.714844 C 1268.660156 43.714844 1268.296875 43.75 1267.941406 43.820312 C 1267.585938 43.890625 1267.238281 43.996094 1266.902344 44.136719 C 1266.566406 44.277344 1266.246094 44.445312 1265.945312 44.648438 C 1265.644531 44.851562 1265.363281 45.082031 1265.105469 45.335938 C 1264.847656 45.59375 1264.617188 45.875 1264.417969 46.175781 C 1264.214844 46.480469 1264.042969 46.800781 1263.90625 47.136719 C 1263.765625 47.472656 1263.660156 47.816406 1263.589844 48.175781 C 1263.519531 48.53125 1263.484375 48.890625 1263.484375 49.253906 C 1263.484375 49.617188 1263.519531 49.980469 1263.589844 50.335938 C 1263.660156 50.691406 1263.765625 51.039062 1263.90625 51.375 C 1264.042969 51.710938 1264.214844 52.03125 1264.417969 52.332031 C 1264.617188 52.636719 1264.847656 52.914062 1265.105469 53.171875 C 1265.363281 53.429688 1265.644531 53.660156 1265.945312 53.859375 C 1266.246094 54.0625 1266.566406 54.234375 1266.902344 54.375 C 1267.238281 54.511719 1267.585938 54.617188 1267.941406 54.6875 C 1268.296875 54.757812 1268.660156 54.792969 1269.023438 54.792969 C 1269.386719 54.792969 1269.746094 54.757812 1270.105469 54.6875 C 1270.460938 54.617188 1270.808594 54.511719 1271.144531 54.375 C 1271.480469 54.234375 1271.796875 54.0625 1272.101562 53.859375 C 1272.402344 53.660156 1272.683594 53.429688 1272.941406 53.171875 C 1273.199219 52.914062 1273.425781 52.636719 1273.628906 52.332031 C 1273.832031 52.03125 1274 51.710938 1274.140625 51.375 C 1274.28125 51.039062 1274.386719 50.691406 1274.457031 50.335938 C 1274.527344 49.980469 1274.5625 49.617188 1274.5625 49.253906 C 1274.5625 48.890625 1274.527344 48.53125 1274.457031 48.175781 C 1274.386719 47.816406 1274.28125 47.472656 1274.140625 47.136719 C 1274 46.800781 1273.832031 46.480469 1273.628906 46.175781 C 1273.425781 45.875 1273.199219 45.59375 1272.941406 45.335938 C 1272.683594 45.082031 1272.402344 44.851562 1272.101562 44.648438 C 1271.796875 44.445312 1271.480469 44.277344 1271.144531 44.136719 C 1270.808594 43.996094 1270.460938 43.890625 1270.105469 43.820312 C 1269.746094 43.75 1269.386719 43.714844 1269.023438 43.714844 Z M 1269.023438 43.714844 "/>
<path style=" stroke:none;fill-rule:nonzero;fill:rgb(100%,91.758728%,0%);fill-opacity:1;" d="M 1337.839844 43.714844 C 1337.476562 43.714844 1337.117188 43.75 1336.757812 43.820312 C 1336.402344 43.890625 1336.054688 43.996094 1335.71875 44.136719 C 1335.382812 44.277344 1335.0625 44.445312 1334.761719 44.648438 C 1334.460938 44.851562 1334.179688 45.082031 1333.921875 45.335938 C 1333.664062 45.59375 1333.433594 45.875 1333.234375 46.175781 C 1333.03125 46.480469 1332.859375 46.800781 1332.722656 47.136719 C 1332.582031 47.472656 1332.476562 47.816406 1332.40625 48.175781 C 1332.335938 48.53125 1332.300781 48.890625 1332.300781 49.253906 C 1332.300781 49.617188 1332.335938 49.980469 1332.40625 50.335938 C 1332.476562 50.691406 1332.582031 51.039062 1332.722656 51.375 C 1332.859375 51.710938 1333.03125 52.03125 1333.234375 52.332031 C 1333.433594 52.636719 1333.664062 52.914062 1333.921875 53.171875 C 1334.179688 53.429688 1334.460938 53.660156 1334.761719 53.859375 C 1335.0625 54.0625 1335.382812 54.234375 1335.71875 54.375 C 1336.054688 54.511719 1336.402344 54.617188 1336.757812 54.6875 C 1337.117188 54.757812 1337.476562 54.792969 1337.839844 54.792969 C 1338.203125 54.792969 1338.5625 54.757812 1338.921875 54.6875 C 1339.277344 54.617188 1339.625 54.511719 1339.960938 54.375 C 1340.296875 54.234375 1340.613281 54.0625 1340.917969 53.859375 C 1341.21875 53.660156 1341.5 53.429688 1341.757812 53.171875 C 1342.015625 52.914062 1342.242188 52.636719 1342.445312 52.332031 C 1342.648438 52.03125 1342.816406 51.710938 1342.957031 51.375 C 1343.097656 51.039062 1343.203125 50.691406 1343.273438 50.335938 C 1343.34375 49.980469 1343.378906 49.617188 1343.378906 49.253906 C 1343.378906 48.890625 1343.34375 48.53125 1343.273438 48.175781 C 1343.203125 47.816406 1343.097656 47.472656 1342.957031 47.136719 C 1342.816406 46.800781 1342.648438 46.480469 1342.445312 46.175781 C 1342.242188 45.875 1342.015625 45.59375 1341.757812 45.335938 C 1341.5 45.082031 1341.21875 44.851562 1340.917969 44.648438 C 1340.613281 44.445312 1340.296875 44.277344 1339.960938 44.136719 C 1339.625 43.996094 1339.277344 43.890625 1338.921875 43.820312 C 1338.5625 43.75 1338.203125 43.714844 1337.839844 43.714844 Z M 1337.839844 43.714844 "/>
<path style=" stroke:none;fill-rule:nonzero;fill:rgb(100%,91.758728%,0%);fill-opacity:1;" d="M 1268.273438 162.949219 C 1267.910156 162.949219 1267.550781 162.984375 1267.191406 163.054688 C 1266.835938 163.125 1266.488281 163.230469 1266.152344 163.371094 C 1265.816406 163.507812 1265.496094 163.679688 1265.195312 163.882812 C 1264.894531 164.082031 1264.613281 164.3125 1264.355469 164.570312 C 1264.097656 164.828125 1263.867188 165.109375 1263.667969 165.410156 C 1263.464844 165.710938 1263.292969 166.03125 1263.15625 166.367188 C 1263.015625 166.703125 1262.910156 167.050781 1262.839844 167.40625 C 1262.769531 167.761719 1262.734375 168.125 1262.734375 168.488281 C 1262.734375 168.851562 1262.769531 169.210938 1262.839844 169.570312 C 1262.910156 169.925781 1263.015625 170.273438 1263.15625 170.609375 C 1263.292969 170.945312 1263.464844 171.261719 1263.667969 171.566406 C 1263.867188 171.867188 1264.097656 172.148438 1264.355469 172.40625 C 1264.613281 172.660156 1264.894531 172.890625 1265.195312 173.09375 C 1265.496094 173.296875 1265.816406 173.464844 1266.152344 173.605469 C 1266.488281 173.746094 1266.835938 173.851562 1267.191406 173.921875 C 1267.550781 173.992188 1267.910156 174.027344 1268.273438 174.027344 C 1268.636719 174.027344 1268.996094 173.992188 1269.355469 173.921875 C 1269.710938 173.851562 1270.058594 173.746094 1270.394531 173.605469 C 1270.730469 173.464844 1271.046875 173.296875 1271.351562 173.09375 C 1271.652344 172.890625 1271.933594 172.660156 1272.191406 172.40625 C 1272.449219 172.148438 1272.675781 171.867188 1272.878906 171.566406 C 1273.082031 171.261719 1273.25 170.945312 1273.390625 170.609375 C 1273.53125 170.273438 1273.636719 169.925781 1273.707031 169.570312 C 1273.777344 169.210938 1273.8125 168.851562 1273.8125 168.488281 C 1273.8125 168.125 1273.777344 167.761719 1273.707031 167.40625 C 1273.636719 167.050781 1273.53125 166.703125 1273.390625 166.367188 C 1273.25 166.03125 1273.082031 165.710938 1272.878906 165.410156 C 1272.675781 165.109375 1272.449219 164.828125 1272.191406 164.570312 C 1271.933594 164.3125 1271.652344 164.082031 1271.351562 163.882812 C 1271.046875 163.679688 1270.730469 163.507812 1270.394531 163.371094 C 1270.058594 163.230469 1269.710938 163.125 1269.355469 163.054688 C 1268.996094 162.984375 1268.636719 162.949219 1268.273438 162.949219 Z M 1268.273438 162.949219 "/>
<path style=" stroke:none;fill-rule:nonzero;fill:rgb(100%,91.758728%,0%);fill-opacity:1;" d="M 1372.332031 102.863281 C 1371.96875 102.863281 1371.609375 102.898438 1371.25 102.96875 C 1370.894531 103.039062 1370.546875 103.144531 1370.210938 103.285156 C 1369.875 103.425781 1369.554688 103.59375 1369.253906 103.796875 C 1368.953125 104 1368.671875 104.226562 1368.414062 104.484375 C 1368.15625 104.742188 1367.925781 105.023438 1367.726562 105.324219 C 1367.523438 105.628906 1367.351562 105.945312 1367.214844 106.28125 C 1367.074219 106.617188 1366.96875 106.964844 1366.898438 107.320312 C 1366.828125 107.679688 1366.792969 108.039062 1366.792969 108.402344 C 1366.792969 108.765625 1366.828125 109.125 1366.898438 109.484375 C 1366.96875 109.839844 1367.074219 110.1875 1367.214844 110.523438 C 1367.351562 110.859375 1367.523438 111.179688 1367.726562 111.480469 C 1367.925781 111.78125 1368.15625 112.0625 1368.414062 112.320312 C 1368.671875 112.578125 1368.953125 112.808594 1369.253906 113.007812 C 1369.554688 113.210938 1369.875 113.382812 1370.210938 113.519531 C 1370.546875 113.660156 1370.894531 113.765625 1371.25 113.835938 C 1371.609375 113.90625 1371.96875 113.941406 1372.332031 113.941406 C 1372.695312 113.941406 1373.054688 113.90625 1373.414062 113.835938 C 1373.769531 113.765625 1374.117188 113.660156 1374.453125 113.519531 C 1374.789062 113.382812 1375.105469 113.210938 1375.410156 113.007812 C 1375.710938 112.808594 1375.992188 112.578125 1376.25 112.320312 C 1376.507812 112.0625 1376.734375 111.78125 1376.9375 111.480469 C 1377.140625 111.179688 1377.3125 110.859375 1377.449219 110.523438 C 1377.589844 110.1875 1377.695312 109.839844 1377.765625 109.484375 C 1377.835938 109.125 1377.871094 108.765625 1377.871094 108.402344 C 1377.871094 108.039062 1377.835938 107.679688 1377.765625 107.320312 C 1377.695312 106.964844 1377.589844 106.617188 1377.449219 106.28125 C 1377.3125 105.945312 1377.140625 105.628906 1376.9375 105.324219 C 1376.734375 105.023438 1376.507812 104.742188 1376.25 104.484375 C 1375.992188 104.226562 1375.710938 104 1375.410156 103.796875 C 1375.105469 103.59375 1374.789062 103.425781 1374.453125 103.285156 C 1374.117188 103.144531 1373.769531 103.039062 1373.414062 102.96875 C 1373.054688 102.898438 1372.695312 102.863281 1372.332031 102.863281 Z M 1372.332031 102.863281 "/>
<g clip-path="url(#clip3)" clip-rule="nonzero">
<path style=" stroke:none;fill-rule:nonzero;fill:rgb(100%,91.758728%,0%);fill-opacity:1;" d="M 1480.792969 44.464844 C 1480.429688 44.464844 1480.066406 44.5 1479.710938 44.570312 C 1479.355469 44.640625 1479.007812 44.746094 1478.671875 44.886719 C 1478.335938 45.027344 1478.015625 45.195312 1477.714844 45.398438 C 1477.410156 45.601562 1477.132812 45.832031 1476.875 46.085938 C 1476.617188 46.34375 1476.386719 46.625 1476.1875 46.925781 C 1475.984375 47.230469 1475.8125 47.546875 1475.675781 47.886719 C 1475.535156 48.222656 1475.429688 48.566406 1475.359375 48.925781 C 1475.289062 49.28125 1475.253906 49.640625 1475.253906 50.003906 C 1475.253906 50.367188 1475.289062 50.730469 1475.359375 51.085938 C 1475.429688 51.441406 1475.535156 51.789062 1475.675781 52.125 C 1475.8125 52.460938 1475.984375 52.78125 1476.1875 53.082031 C 1476.386719 53.386719 1476.617188 53.664062 1476.875 53.921875 C 1477.132812 54.179688 1477.410156 54.410156 1477.714844 54.609375 C 1478.015625 54.8125 1478.335938 54.984375 1478.671875 55.121094 C 1479.007812 55.261719 1479.355469 55.367188 1479.710938 55.4375 C 1480.066406 55.507812 1480.429688 55.542969 1480.792969 55.542969 C 1481.15625 55.542969 1481.515625 55.507812 1481.871094 55.4375 C 1482.230469 55.367188 1482.578125 55.261719 1482.914062 55.121094 C 1483.25 54.984375 1483.566406 54.8125 1483.871094 54.609375 C 1484.171875 54.410156 1484.453125 54.179688 1484.710938 53.921875 C 1484.964844 53.664062 1485.195312 53.386719 1485.398438 53.082031 C 1485.601562 52.78125 1485.769531 52.460938 1485.910156 52.125 C 1486.050781 51.789062 1486.15625 51.441406 1486.226562 51.085938 C 1486.296875 50.730469 1486.332031 50.367188 1486.332031 50.003906 C 1486.332031 49.640625 1486.296875 49.28125 1486.226562 48.925781 C 1486.15625 48.566406 1486.050781 48.222656 1485.910156 47.886719 C 1485.769531 47.546875 1485.601562 47.230469 1485.398438 46.925781 C 1485.195312 46.625 1484.964844 46.34375 1484.710938 46.085938 C 1484.453125 45.832031 1484.171875 45.601562 1483.871094 45.398438 C 1483.566406 45.195312 1483.25 45.027344 1482.914062 44.886719 C 1482.578125 44.746094 1482.230469 44.640625 1481.871094 44.570312 C 1481.515625 44.5 1481.15625 44.464844 1480.792969 44.464844 Z M 1480.792969 44.464844 "/>
</g>
<path style=" stroke:none;fill-rule:nonzero;fill:rgb(100%,91.758728%,0%);fill-opacity:1;" d="M 1339.339844 162.949219 C 1338.976562 162.949219 1338.613281 162.984375 1338.257812 163.054688 C 1337.902344 163.125 1337.554688 163.230469 1337.21875 163.371094 C 1336.882812 163.507812 1336.5625 163.679688 1336.261719 163.882812 C 1335.957031 164.082031 1335.679688 164.3125 1335.421875 164.570312 C 1335.164062 164.828125 1334.933594 165.109375 1334.734375 165.410156 C 1334.53125 165.710938 1334.359375 166.03125 1334.222656 166.367188 C 1334.082031 166.703125 1333.976562 167.050781 1333.90625 167.40625 C 1333.835938 167.761719 1333.800781 168.125 1333.800781 168.488281 C 1333.800781 168.851562 1333.835938 169.210938 1333.90625 169.570312 C 1333.976562 169.925781 1334.082031 170.273438 1334.222656 170.609375 C 1334.359375 170.945312 1334.53125 171.261719 1334.734375 171.566406 C 1334.933594 171.867188 1335.164062 172.148438 1335.421875 172.40625 C 1335.679688 172.660156 1335.957031 172.890625 1336.261719 173.09375 C 1336.5625 173.296875 1336.882812 173.464844 1337.21875 173.605469 C 1337.554688 173.746094 1337.902344 173.851562 1338.257812 173.921875 C 1338.613281 173.992188 1338.976562 174.027344 1339.339844 174.027344 C 1339.703125 174.027344 1340.0625 173.992188 1340.417969 173.921875 C 1340.777344 173.851562 1341.121094 173.746094 1341.460938 173.605469 C 1341.796875 173.464844 1342.113281 173.296875 1342.417969 173.09375 C 1342.71875 172.890625 1343 172.660156 1343.257812 172.40625 C 1343.511719 172.148438 1343.742188 171.867188 1343.945312 171.566406 C 1344.148438 171.261719 1344.316406 170.945312 1344.457031 170.609375 C 1344.597656 170.273438 1344.703125 169.925781 1344.773438 169.570312 C 1344.84375 169.210938 1344.878906 168.851562 1344.878906 168.488281 C 1344.878906 168.125 1344.84375 167.761719 1344.773438 167.40625 C 1344.703125 167.050781 1344.597656 166.703125 1344.457031 166.367188 C 1344.316406 166.03125 1344.148438 165.710938 1343.945312 165.410156 C 1343.742188 165.109375 1343.511719 164.828125 1343.257812 164.570312 C 1343 164.3125 1342.71875 164.082031 1342.417969 163.882812 C 1342.113281 163.679688 1341.796875 163.507812 1341.460938 163.371094 C 1341.121094 163.230469 1340.777344 163.125 1340.417969 163.054688 C 1340.0625 162.984375 1339.703125 162.949219 1339.339844 162.949219 Z M 1339.339844 162.949219 "/>
<path style=" stroke:none;fill-rule:nonzero;fill:rgb(100%,91.758728%,0%);fill-opacity:1;" d="M 1447.40625 103.632812 C 1447.042969 103.632812 1446.683594 103.667969 1446.328125 103.738281 C 1445.96875 103.808594 1445.621094 103.914062 1445.285156 104.054688 C 1444.949219 104.195312 1444.632812 104.363281 1444.328125 104.566406 C 1444.027344 104.769531 1443.746094 104.996094 1443.488281 105.253906 C 1443.234375 105.511719 1443.003906 105.792969 1442.800781 106.09375 C 1442.597656 106.398438 1442.429688 106.714844 1442.289062 107.050781 C 1442.148438 107.386719 1442.042969 107.734375 1441.972656 108.089844 C 1441.902344 108.449219 1441.867188 108.808594 1441.867188 109.171875 C 1441.867188 109.535156 1441.902344 109.894531 1441.972656 110.253906 C 1442.042969 110.609375 1442.148438 110.957031 1442.289062 111.292969 C 1442.429688 111.628906 1442.597656 111.949219 1442.800781 112.25 C 1443.003906 112.550781 1443.234375 112.832031 1443.488281 113.089844 C 1443.746094 113.347656 1444.027344 113.578125 1444.328125 113.777344 C 1444.632812 113.980469 1444.949219 114.152344 1445.285156 114.289062 C 1445.621094 114.429688 1445.96875 114.535156 1446.328125 114.605469 C 1446.683594 114.675781 1447.042969 114.710938 1447.40625 114.710938 C 1447.769531 114.710938 1448.132812 114.675781 1448.488281 114.605469 C 1448.84375 114.535156 1449.191406 114.429688 1449.527344 114.289062 C 1449.863281 114.152344 1450.183594 113.980469 1450.484375 113.777344 C 1450.789062 113.578125 1451.066406 113.347656 1451.324219 113.089844 C 1451.582031 112.832031 1451.8125 112.550781 1452.011719 112.25 C 1452.214844 111.949219 1452.386719 111.628906 1452.523438 111.292969 C 1452.664062 110.957031 1452.769531 110.609375 1452.839844 110.253906 C 1452.910156 109.894531 1452.945312 109.535156 1452.945312 109.171875 C 1452.945312 108.808594 1452.910156 108.449219 1452.839844 108.089844 C 1452.769531 107.734375 1452.664062 107.386719 1452.523438 107.050781 C 1452.386719 106.714844 1452.214844 106.398438 1452.011719 106.09375 C 1451.8125 105.792969 1451.582031 105.511719 1451.324219 105.253906 C 1451.066406 104.996094 1450.789062 104.769531 1450.484375 104.566406 C 1450.183594 104.363281 1449.863281 104.195312 1449.527344 104.054688 C 1449.191406 103.914062 1448.84375 103.808594 1448.488281 103.738281 C 1448.132812 103.667969 1447.769531 103.632812 1447.40625 103.632812 Z M 1447.40625 103.632812 "/>
<g clip-path="url(#clip4)" clip-rule="nonzero">
<path style=" stroke:none;fill-rule:nonzero;fill:rgb(100%,91.758728%,0%);fill-opacity:1;" d="M 1481.542969 162.199219 C 1481.179688 162.199219 1480.816406 162.234375 1480.460938 162.304688 C 1480.105469 162.375 1479.757812 162.480469 1479.421875 162.621094 C 1479.085938 162.757812 1478.765625 162.929688 1478.464844 163.132812 C 1478.160156 163.332031 1477.882812 163.5625 1477.625 163.820312 C 1477.367188 164.078125 1477.136719 164.359375 1476.9375 164.660156 C 1476.734375 164.960938 1476.5625 165.28125 1476.425781 165.617188 C 1476.285156 165.953125 1476.179688 166.300781 1476.109375 166.65625 C 1476.039062 167.015625 1476.003906 167.375 1476.003906 167.738281 C 1476.003906 168.101562 1476.039062 168.460938 1476.109375 168.820312 C 1476.179688 169.175781 1476.285156 169.523438 1476.425781 169.859375 C 1476.5625 170.195312 1476.734375 170.511719 1476.9375 170.816406 C 1477.136719 171.117188 1477.367188 171.398438 1477.625 171.65625 C 1477.882812 171.914062 1478.160156 172.140625 1478.464844 172.34375 C 1478.765625 172.546875 1479.085938 172.714844 1479.421875 172.855469 C 1479.757812 172.996094 1480.105469 173.101562 1480.460938 173.171875 C 1480.816406 173.242188 1481.179688 173.277344 1481.542969 173.277344 C 1481.90625 173.277344 1482.265625 173.242188 1482.621094 173.171875 C 1482.980469 173.101562 1483.324219 172.996094 1483.660156 172.855469 C 1484 172.714844 1484.316406 172.546875 1484.621094 172.34375 C 1484.921875 172.140625 1485.203125 171.914062 1485.460938 171.65625 C 1485.714844 171.398438 1485.945312 171.117188 1486.148438 170.816406 C 1486.351562 170.511719 1486.519531 170.195312 1486.660156 169.859375 C 1486.800781 169.523438 1486.90625 169.175781 1486.976562 168.820312 C 1487.046875 168.460938 1487.082031 168.101562 1487.082031 167.738281 C 1487.082031 167.375 1487.046875 167.015625 1486.976562 166.65625 C 1486.90625 166.300781 1486.800781 165.953125 1486.660156 165.617188 C 1486.519531 165.28125 1486.351562 164.960938 1486.148438 164.660156 C 1485.945312 164.359375 1485.714844 164.078125 1485.460938 163.820312 C 1485.203125 163.5625 1484.921875 163.332031 1484.621094 163.132812 C 1484.316406 162.929688 1484 162.757812 1483.660156 162.621094 C 1483.324219 162.480469 1482.980469 162.375 1482.621094 162.304688 C 1482.265625 162.234375 1481.90625 162.199219 1481.542969 162.199219 Z M 1481.542969 162.199219 "/>
</g>
<path style=" stroke:none;fill-rule:nonzero;fill:rgb(100%,91.758728%,0%);fill-opacity:1;" d="M 1340.839844 285.238281 C 1340.476562 285.238281 1340.113281 285.273438 1339.757812 285.347656 C 1339.402344 285.417969 1339.054688 285.523438 1338.71875 285.660156 C 1338.382812 285.800781 1338.0625 285.972656 1337.761719 286.171875 C 1337.457031 286.375 1337.179688 286.605469 1336.921875 286.863281 C 1336.664062 287.121094 1336.433594 287.398438 1336.234375 287.703125 C 1336.03125 288.003906 1335.859375 288.324219 1335.71875 288.660156 C 1335.582031 288.996094 1335.476562 289.34375 1335.40625 289.699219 C 1335.335938 290.054688 1335.300781 290.414062 1335.300781 290.78125 C 1335.300781 291.144531 1335.335938 291.503906 1335.40625 291.859375 C 1335.476562 292.21875 1335.582031 292.5625 1335.71875 292.898438 C 1335.859375 293.234375 1336.03125 293.554688 1336.234375 293.855469 C 1336.433594 294.160156 1336.664062 294.441406 1336.921875 294.695312 C 1337.179688 294.953125 1337.457031 295.183594 1337.761719 295.386719 C 1338.0625 295.589844 1338.382812 295.757812 1338.71875 295.898438 C 1339.054688 296.035156 1339.402344 296.140625 1339.757812 296.214844 C 1340.113281 296.285156 1340.476562 296.320312 1340.839844 296.320312 C 1341.203125 296.320312 1341.5625 296.285156 1341.917969 296.214844 C 1342.277344 296.140625 1342.621094 296.035156 1342.957031 295.898438 C 1343.292969 295.757812 1343.613281 295.589844 1343.917969 295.386719 C 1344.21875 295.183594 1344.5 294.953125 1344.757812 294.695312 C 1345.011719 294.441406 1345.242188 294.160156 1345.445312 293.855469 C 1345.648438 293.554688 1345.816406 293.234375 1345.957031 292.898438 C 1346.097656 292.5625 1346.203125 292.21875 1346.273438 291.859375 C 1346.34375 291.503906 1346.378906 291.144531 1346.378906 290.78125 C 1346.378906 290.414062 1346.34375 290.054688 1346.273438 289.699219 C 1346.203125 289.34375 1346.097656 288.996094 1345.957031 288.660156 C 1345.816406 288.324219 1345.648438 288.003906 1345.445312 287.703125 C 1345.242188 287.398438 1345.011719 287.121094 1344.757812 286.863281 C 1344.5 286.605469 1344.21875 286.375 1343.917969 286.171875 C 1343.613281 285.972656 1343.292969 285.800781 1342.957031 285.660156 C 1342.621094 285.523438 1342.277344 285.417969 1341.917969 285.347656 C 1341.5625 285.273438 1341.203125 285.238281 1340.839844 285.238281 Z M 1340.839844 285.238281 "/>
<path style=" stroke:none;fill-rule:nonzero;fill:rgb(100%,91.758728%,0%);fill-opacity:1;" d="M 1374.121094 224.867188 C 1373.757812 224.867188 1373.398438 224.902344 1373.042969 224.972656 C 1372.683594 225.042969 1372.339844 225.148438 1372.003906 225.285156 C 1371.667969 225.425781 1371.347656 225.597656 1371.042969 225.800781 C 1370.742188 226 1370.460938 226.230469 1370.207031 226.488281 C 1369.949219 226.746094 1369.71875 227.023438 1369.515625 227.328125 C 1369.3125 227.628906 1369.144531 227.949219 1369.003906 228.285156 C 1368.863281 228.621094 1368.761719 228.96875 1368.6875 229.324219 C 1368.617188 229.679688 1368.582031 230.042969 1368.582031 230.40625 C 1368.582031 230.769531 1368.617188 231.128906 1368.6875 231.484375 C 1368.761719 231.84375 1368.863281 232.1875 1369.003906 232.523438 C 1369.144531 232.859375 1369.3125 233.179688 1369.515625 233.484375 C 1369.71875 233.785156 1369.949219 234.066406 1370.207031 234.324219 C 1370.460938 234.578125 1370.742188 234.808594 1371.042969 235.011719 C 1371.347656 235.214844 1371.667969 235.382812 1372.003906 235.523438 C 1372.339844 235.664062 1372.683594 235.765625 1373.042969 235.839844 C 1373.398438 235.910156 1373.757812 235.945312 1374.121094 235.945312 C 1374.484375 235.945312 1374.847656 235.910156 1375.203125 235.839844 C 1375.558594 235.765625 1375.90625 235.664062 1376.242188 235.523438 C 1376.578125 235.382812 1376.898438 235.214844 1377.199219 235.011719 C 1377.503906 234.808594 1377.78125 234.578125 1378.039062 234.324219 C 1378.296875 234.066406 1378.527344 233.785156 1378.730469 233.484375 C 1378.929688 233.179688 1379.101562 232.859375 1379.242188 232.523438 C 1379.378906 232.1875 1379.484375 231.84375 1379.554688 231.484375 C 1379.625 231.128906 1379.664062 230.769531 1379.664062 230.40625 C 1379.664062 230.042969 1379.625 229.679688 1379.554688 229.324219 C 1379.484375 228.96875 1379.378906 228.621094 1379.242188 228.285156 C 1379.101562 227.949219 1378.929688 227.628906 1378.730469 227.328125 C 1378.527344 227.023438 1378.296875 226.746094 1378.039062 226.488281 C 1377.78125 226.230469 1377.503906 226 1377.199219 225.800781 C 1376.898438 225.597656 1376.578125 225.425781 1376.242188 225.285156 C 1375.90625 225.148438 1375.558594 225.042969 1375.203125 224.972656 C 1374.847656 224.902344 1374.484375 224.867188 1374.121094 224.867188 Z M 1374.121094 224.867188 "/>
<path style=" stroke:none;fill-rule:nonzero;fill:rgb(100%,91.758728%,0%);fill-opacity:1;" d="M 1374.871094 345.128906 C 1374.507812 345.128906 1374.148438 345.164062 1373.792969 345.234375 C 1373.433594 345.304688 1373.089844 345.410156 1372.753906 345.550781 C 1372.417969 345.691406 1372.097656 345.859375 1371.792969 346.0625 C 1371.492188 346.265625 1371.210938 346.496094 1370.953125 346.75 C 1370.699219 347.007812 1370.46875 347.289062 1370.265625 347.589844 C 1370.0625 347.894531 1369.894531 348.214844 1369.753906 348.550781 C 1369.613281 348.886719 1369.511719 349.230469 1369.4375 349.589844 C 1369.367188 349.945312 1369.332031 350.304688 1369.332031 350.667969 C 1369.332031 351.03125 1369.367188 351.394531 1369.4375 351.75 C 1369.511719 352.105469 1369.613281 352.453125 1369.753906 352.789062 C 1369.894531 353.125 1370.0625 353.445312 1370.265625 353.746094 C 1370.46875 354.050781 1370.699219 354.328125 1370.953125 354.585938 C 1371.210938 354.84375 1371.492188 355.074219 1371.792969 355.273438 C 1372.097656 355.476562 1372.417969 355.648438 1372.753906 355.789062 C 1373.089844 355.925781 1373.433594 356.03125 1373.792969 356.101562 C 1374.148438 356.171875 1374.507812 356.207031 1374.871094 356.207031 C 1375.234375 356.207031 1375.597656 356.171875 1375.953125 356.101562 C 1376.308594 356.03125 1376.65625 355.925781 1376.992188 355.789062 C 1377.328125 355.648438 1377.648438 355.476562 1377.949219 355.273438 C 1378.253906 355.074219 1378.53125 354.84375 1378.789062 354.585938 C 1379.046875 354.328125 1379.277344 354.050781 1379.476562 353.746094 C 1379.679688 353.445312 1379.851562 353.125 1379.992188 352.789062 C 1380.128906 352.453125 1380.234375 352.105469 1380.304688 351.75 C 1380.375 351.394531 1380.410156 351.03125 1380.410156 350.667969 C 1380.410156 350.304688 1380.375 349.945312 1380.304688 349.589844 C 1380.234375 349.230469 1380.128906 348.886719 1379.992188 348.550781 C 1379.851562 348.214844 1379.679688 347.894531 1379.476562 347.589844 C 1379.277344 347.289062 1379.046875 347.007812 1378.789062 346.75 C 1378.53125 346.496094 1378.253906 346.265625 1377.949219 346.0625 C 1377.648438 345.859375 1377.328125 345.691406 1376.992188 345.550781 C 1376.65625 345.410156 1376.308594 345.304688 1375.953125 345.234375 C 1375.597656 345.164062 1375.234375 345.128906 1374.871094 345.128906 Z M 1374.871094 345.128906 "/>
<path style=" stroke:none;fill-rule:nonzero;fill:rgb(100%,91.758728%,0%);fill-opacity:1;" d="M 1443.367188 225.613281 C 1443.003906 225.613281 1442.644531 225.652344 1442.285156 225.722656 C 1441.929688 225.792969 1441.582031 225.898438 1441.246094 226.035156 C 1440.910156 226.175781 1440.589844 226.347656 1440.289062 226.546875 C 1439.988281 226.75 1439.707031 226.980469 1439.449219 227.238281 C 1439.191406 227.496094 1438.960938 227.773438 1438.761719 228.078125 C 1438.558594 228.378906 1438.386719 228.699219 1438.25 229.035156 C 1438.109375 229.371094 1438.003906 229.71875 1437.933594 230.074219 C 1437.863281 230.429688 1437.828125 230.792969 1437.828125 231.15625 C 1437.828125 231.519531 1437.863281 231.878906 1437.933594 232.234375 C 1438.003906 232.59375 1438.109375 232.9375 1438.25 233.273438 C 1438.386719 233.609375 1438.558594 233.929688 1438.761719 234.234375 C 1438.960938 234.535156 1439.191406 234.816406 1439.449219 235.070312 C 1439.707031 235.328125 1439.988281 235.558594 1440.289062 235.761719 C 1440.589844 235.964844 1440.910156 236.132812 1441.246094 236.273438 C 1441.582031 236.414062 1441.929688 236.515625 1442.285156 236.589844 C 1442.644531 236.660156 1443.003906 236.695312 1443.367188 236.695312 C 1443.730469 236.695312 1444.089844 236.660156 1444.449219 236.589844 C 1444.804688 236.515625 1445.152344 236.414062 1445.488281 236.273438 C 1445.824219 236.132812 1446.140625 235.964844 1446.445312 235.761719 C 1446.746094 235.558594 1447.027344 235.328125 1447.285156 235.070312 C 1447.542969 234.816406 1447.769531 234.535156 1447.972656 234.234375 C 1448.175781 233.929688 1448.347656 233.609375 1448.484375 233.273438 C 1448.625 232.9375 1448.730469 232.59375 1448.800781 232.234375 C 1448.871094 231.878906 1448.90625 231.519531 1448.90625 231.15625 C 1448.90625 230.792969 1448.871094 230.429688 1448.800781 230.074219 C 1448.730469 229.71875 1448.625 229.371094 1448.484375 229.035156 C 1448.347656 228.699219 1448.175781 228.378906 1447.972656 228.078125 C 1447.769531 227.773438 1447.542969 227.496094 1447.285156 227.238281 C 1447.027344 226.980469 1446.746094 226.75 1446.445312 226.546875 C 1446.140625 226.347656 1445.824219 226.175781 1445.488281 226.035156 C 1445.152344 225.898438 1444.804688 225.792969 1444.449219 225.722656 C 1444.089844 225.652344 1443.730469 225.613281 1443.367188 225.613281 Z M 1443.367188 225.613281 "/>
<path style=" stroke:none;fill-rule:nonzero;fill:rgb(100%,91.758728%,0%);fill-opacity:1;" d="M 1443.367188 345.878906 C 1443.003906 345.878906 1442.644531 345.914062 1442.285156 345.984375 C 1441.929688 346.054688 1441.582031 346.160156 1441.246094 346.300781 C 1440.910156 346.441406 1440.589844 346.609375 1440.289062 346.8125 C 1439.988281 347.015625 1439.707031 347.246094 1439.449219 347.5 C 1439.191406 347.757812 1438.960938 348.039062 1438.761719 348.339844 C 1438.558594 348.644531 1438.386719 348.960938 1438.25 349.300781 C 1438.109375 349.636719 1438.003906 349.980469 1437.933594 350.339844 C 1437.863281 350.695312 1437.828125 351.054688 1437.828125 351.417969 C 1437.828125 351.78125 1437.863281 352.144531 1437.933594 352.5 C 1438.003906 352.855469 1438.109375 353.203125 1438.25 353.539062 C 1438.386719 353.875 1438.558594 354.195312 1438.761719 354.496094 C 1438.960938 354.800781 1439.191406 355.078125 1439.449219 355.335938 C 1439.707031 355.59375 1439.988281 355.824219 1440.289062 356.023438 C 1440.589844 356.226562 1440.910156 356.398438 1441.246094 356.535156 C 1441.582031 356.675781 1441.929688 356.78125 1442.285156 356.851562 C 1442.644531 356.921875 1443.003906 356.957031 1443.367188 356.957031 C 1443.730469 356.957031 1444.089844 356.921875 1444.449219 356.851562 C 1444.804688 356.78125 1445.152344 356.675781 1445.488281 356.535156 C 1445.824219 356.398438 1446.140625 356.226562 1446.445312 356.023438 C 1446.746094 355.824219 1447.027344 355.59375 1447.285156 355.335938 C 1447.542969 355.078125 1447.769531 354.800781 1447.972656 354.496094 C 1448.175781 354.195312 1448.347656 353.875 1448.484375 353.539062 C 1448.625 353.203125 1448.730469 352.855469 1448.800781 352.5 C 1448.871094 352.144531 1448.90625 351.78125 1448.90625 351.417969 C 1448.90625 351.054688 1448.871094 350.695312 1448.800781 350.339844 C 1448.730469 349.980469 1448.625 349.636719 1448.484375 349.300781 C 1448.347656 348.960938 1448.175781 348.644531 1447.972656 348.339844 C 1447.769531 348.039062 1447.542969 347.757812 1447.285156 347.5 C 1447.027344 347.246094 1446.746094 347.015625 1446.445312 346.8125 C 1446.140625 346.609375 1445.824219 346.441406 1445.488281 346.300781 C 1445.152344 346.160156 1444.804688 346.054688 1444.449219 345.984375 C 1444.089844 345.914062 1443.730469 345.878906 1443.367188 345.878906 Z M 1443.367188 345.878906 "/>
<path style=" stroke:none;fill-rule:nonzero;fill:rgb(100%,91.758728%,0%);fill-opacity:1;" d="M 1478.542969 284.488281 C 1478.179688 284.488281 1477.820312 284.527344 1477.460938 284.597656 C 1477.105469 284.667969 1476.757812 284.773438 1476.421875 284.910156 C 1476.085938 285.050781 1475.765625 285.222656 1475.464844 285.421875 C 1475.164062 285.625 1474.882812 285.855469 1474.625 286.113281 C 1474.367188 286.371094 1474.140625 286.648438 1473.9375 286.953125 C 1473.734375 287.253906 1473.5625 287.574219 1473.425781 287.910156 C 1473.285156 288.246094 1473.179688 288.59375 1473.109375 288.949219 C 1473.039062 289.304688 1473.003906 289.667969 1473.003906 290.03125 C 1473.003906 290.394531 1473.039062 290.753906 1473.109375 291.109375 C 1473.179688 291.46875 1473.285156 291.8125 1473.425781 292.148438 C 1473.5625 292.484375 1473.734375 292.804688 1473.9375 293.109375 C 1474.140625 293.410156 1474.367188 293.691406 1474.625 293.945312 C 1474.882812 294.203125 1475.164062 294.433594 1475.464844 294.636719 C 1475.765625 294.839844 1476.085938 295.007812 1476.421875 295.148438 C 1476.757812 295.289062 1477.105469 295.390625 1477.460938 295.464844 C 1477.820312 295.535156 1478.179688 295.570312 1478.542969 295.570312 C 1478.90625 295.570312 1479.265625 295.535156 1479.625 295.464844 C 1479.980469 295.390625 1480.328125 295.289062 1480.664062 295.148438 C 1481 295.007812 1481.316406 294.839844 1481.621094 294.636719 C 1481.921875 294.433594 1482.203125 294.203125 1482.460938 293.945312 C 1482.71875 293.691406 1482.945312 293.410156 1483.148438 293.109375 C 1483.351562 292.804688 1483.523438 292.484375 1483.660156 292.148438 C 1483.800781 291.8125 1483.90625 291.46875 1483.976562 291.109375 C 1484.046875 290.753906 1484.082031 290.394531 1484.082031 290.03125 C 1484.082031 289.667969 1484.046875 289.304688 1483.976562 288.949219 C 1483.90625 288.59375 1483.800781 288.246094 1483.660156 287.910156 C 1483.523438 287.574219 1483.351562 287.253906 1483.148438 286.953125 C 1482.945312 286.648438 1482.71875 286.371094 1482.460938 286.113281 C 1482.203125 285.855469 1481.921875 285.625 1481.621094 285.421875 C 1481.316406 285.222656 1481 285.050781 1480.664062 284.910156 C 1480.328125 284.773438 1479.980469 284.667969 1479.625 284.597656 C 1479.265625 284.527344 1478.90625 284.488281 1478.542969 284.488281 Z M 1478.542969 284.488281 "/>
<path style="fill:none;stroke-width:1;stroke-linecap:round;stroke-linejoin:miter;stroke:rgb(100%,91.758728%,0%);stroke-opacity:1;stroke-miterlimit:4;" d="M 0.5006 0.000914553 L 40.655931 0.00145848 " transform="matrix(1.293814,0.746984,-0.749831,1.298745,136.067846,32.808466)"/>
<path style="fill:none;stroke-width:1;stroke-linecap:round;stroke-linejoin:miter;stroke:rgb(100%,91.758728%,0%);stroke-opacity:1;stroke-miterlimit:4;" d="M 0.500902 0.000525181 L 39.915589 0.000525181 " transform="matrix(0.000000000000000426,1.50285,-1.499661,0.000000000000000425,188.85235,64.317532)"/>
<path style="fill:none;stroke-width:1;stroke-linecap:round;stroke-linejoin:miter;stroke:rgb(100%,91.758728%,0%);stroke-opacity:1;stroke-miterlimit:4;" d="M 0.499924 0.0000369396 L 41.077703 0.0000369396 " transform="matrix(0.000000000000000424,1.497125,-1.499661,0.000000000000000425,82.355524,64.181239)"/>
<path style="fill:none;stroke-width:1;stroke-linecap:round;stroke-linejoin:miter;stroke:rgb(100%,91.758728%,0%);stroke-opacity:1;stroke-miterlimit:4;" d="M 0.500547 0.000315206 L 39.922094 0.000839606 " transform="matrix(-0.0280223,1.502589,-1.499401,-0.0279628,134.760593,161.70883)"/>
<path style="fill:none;stroke-width:1;stroke-linecap:round;stroke-linejoin:miter;stroke:rgb(100%,91.758728%,0%);stroke-opacity:1;stroke-miterlimit:4;" d="M 0.500155 0.000367273 L 33.225004 0.000367273 " transform="matrix(0.000000000000000091,1.489932,-1.499661,0.000000000000000092,177.602113,69.680584)"/>
<path style="fill:none;stroke-width:1;stroke-linecap:round;stroke-linejoin:miter;stroke:rgb(100%,91.758728%,0%);stroke-opacity:1;stroke-miterlimit:4;" d="M 0.498725 -0.00119231 L 39.905968 -0.00119231 " transform="matrix(0.000000000000000092,1.503432,-1.499661,0.000000000000000092,190.638837,253.390827)"/>
<path style="fill:none;stroke-width:1;stroke-linecap:round;stroke-linejoin:miter;stroke:rgb(100%,91.758728%,0%);stroke-opacity:1;stroke-miterlimit:4;" d="M 0.500562 -0.000916419 L 39.767893 -0.000916419 " transform="matrix(0.000000000000000092,1.50839,-1.499661,0.000000000000000092,297.494719,249.655114)"/>
<path style="fill:none;stroke-width:1;stroke-linecap:round;stroke-linejoin:miter;stroke:rgb(100%,91.758728%,0%);stroke-opacity:1;stroke-miterlimit:4;" d="M 0.499949 0.000129334 L 40.571433 -0.000413752 " transform="matrix(-1.296521,0.748547,-0.749831,-1.298745,137.081885,32.813433)"/>
<path style="fill:none;stroke-width:1;stroke-linecap:round;stroke-linejoin:miter;stroke:rgb(100%,91.758728%,0%);stroke-opacity:1;stroke-miterlimit:4;" d="M 0.500803 0.0010757 L 33.22303 0.0010757 " transform="matrix(0.000000000000000091,1.489932,-1.499661,0.000000000000000092,123.989894,161.695244)"/>
<path style="fill:none;stroke-width:1;stroke-linecap:round;stroke-linejoin:miter;stroke:rgb(100%,91.758728%,0%);stroke-opacity:1;stroke-miterlimit:4;" d="M 0.49921 -0.00118698 L 40.371208 0.000523922 " transform="matrix(-1.302966,0.752268,-0.749831,-1.298745,244.165189,217.20495)"/>
<path style="fill:none;stroke-width:1;stroke-linecap:round;stroke-linejoin:miter;stroke:rgb(100%,91.758728%,0%);stroke-opacity:1;stroke-miterlimit:4;" d="M 0.499868 0.0014296 L 37.898756 0.00017097 " transform="matrix(1.302445,0.751967,-0.749831,1.298745,190.404709,310.700384)"/>
<path style="fill:none;stroke-width:1;stroke-linecap:round;stroke-linejoin:miter;stroke:rgb(100%,91.758728%,0%);stroke-opacity:1;stroke-miterlimit:4;" d="M 0.499532 -0.00133807 L 38.90676 -0.00115061 " transform="matrix(-1.301835,0.751615,-0.749831,-1.298745,295.520399,310.790775)"/>
<path style="fill:none;stroke-width:1;stroke-linecap:round;stroke-linejoin:miter;stroke:rgb(100%,91.758728%,0%);stroke-opacity:1;stroke-miterlimit:4;" d="M 0.501504 0.000167866 L 38.5194 0.000572343 " transform="matrix(1.298225,0.74953,-0.749831,1.298745,245.466249,218.577015)"/>
<path style="fill:none;stroke-width:1;stroke-linecap:round;stroke-linejoin:miter;stroke:rgb(100%,91.758728%,0%);stroke-opacity:1;stroke-miterlimit:4;" d="M 0.499969 -0.000388927 L 39.921516 0.000135473 " transform="matrix(-0.0280223,1.502589,-1.499401,-0.0279628,28.33374,157.959678)"/>
<path style="fill:none;stroke-width:1;stroke-linecap:round;stroke-linejoin:miter;stroke:rgb(100%,91.758728%,0%);stroke-opacity:1;stroke-miterlimit:4;" d="M 0.498827 0.0000220956 L 42.491042 0.00121999 " transform="matrix(-0.454843,1.429593,-1.429074,-0.454677,80.898794,248.615015)"/>
<path style="fill:none;stroke-width:1;stroke-linecap:round;stroke-linejoin:miter;stroke:rgb(100%,91.758728%,0%);stroke-opacity:1;stroke-miterlimit:4;" d="M 0.501068 -0.000624958 L 43.130393 0.000201983 " transform="matrix(-1.308046,0.724659,-0.726741,-1.311805,134.510435,218.936858)"/>
<path style="fill:none;stroke-width:1;stroke-linecap:round;stroke-linejoin:miter;stroke:rgb(100%,91.758728%,0%);stroke-opacity:1;stroke-miterlimit:4;" d="M 0.501716 0.000393271 L 37.349714 -0.000876523 " transform="matrix(-1.304107,-0.752927,0.749831,-1.298745,188.111028,248.288422)"/>
<path style="fill:none;stroke-width:1;stroke-linecap:round;stroke-linejoin:miter;stroke:rgb(100%,91.758728%,0%);stroke-opacity:1;stroke-miterlimit:4;" d="M 0.49988 0.00145781 L 37.347878 0.000188011 " transform="matrix(-1.304107,-0.752927,0.749831,-1.298745,79.955491,248.288422)"/>
<path style="fill:none;stroke-width:1;stroke-linecap:round;stroke-linejoin:miter;stroke:rgb(100%,91.758728%,0%);stroke-opacity:1;stroke-miterlimit:4;" d="M 0.500819 0.000827736 L 37.348817 -0.000442058 " transform="matrix(-1.304107,-0.752927,0.749831,-1.298745,133.199375,155.569561)"/>
<path style="fill:none;stroke-width:1;stroke-linecap:round;stroke-linejoin:miter;stroke:rgb(100%,91.758728%,0%);stroke-opacity:1;stroke-miterlimit:4;" d="M 0.499746 -0.000295843 L 37.655593 0.0000208727 " transform="matrix(-0.74676,-1.293426,1.298745,-0.749831,92.775919,363.513351)"/>
<path style="fill:none;stroke-width:1;stroke-linecap:round;stroke-linejoin:miter;stroke:rgb(100%,91.758728%,0%);stroke-opacity:1;stroke-miterlimit:4;" d="M 0.49895 -0.00118964 L 38.502321 -0.00118964 " transform="matrix(-1.499661,0.000000000000002182,-0.000000000000002182,-1.499661,61.951381,310.131028)"/>
<path style="fill:none;stroke-width:1;stroke-linecap:round;stroke-linejoin:miter;stroke:rgb(100%,91.758728%,0%);stroke-opacity:1;stroke-miterlimit:4;" d="M 0.50038 0.000949139 L 39.746288 0.000424206 " transform="matrix(0.745318,-1.290929,1.298745,0.749831,60.727387,416.520244)"/>
<path style="fill:none;stroke-width:1;stroke-linecap:round;stroke-linejoin:miter;stroke:rgb(100%,91.758728%,0%);stroke-opacity:1;stroke-miterlimit:4;" d="M 0.501022 -0.000755672 L 38.156486 -0.000755672 " transform="matrix(-1.4936,-0.000000000000000183,0.000000000000000184,-1.499661,59.142857,415.596523)"/>
<path style="fill:none;stroke-width:1;stroke-linecap:round;stroke-linejoin:miter;stroke:rgb(100%,91.758728%,0%);stroke-opacity:1;stroke-miterlimit:4;" d="M 0.500825 0.000530465 L 40.931017 0.000579182 " transform="matrix(-1.300949,0.751103,-0.749831,-1.298745,80.640227,125.804205)"/>
<path style="fill:none;stroke-width:1;stroke-linecap:round;stroke-linejoin:miter;stroke:rgb(100%,91.758728%,0%);stroke-opacity:1;stroke-miterlimit:4;" d="M 0.498977 -0.000253783 L 42.955753 -0.00129964 " transform="matrix(1.300146,-0.75064,0.749831,1.298745,131.273323,158.152225)"/>
<path style="fill:none;stroke-width:1;stroke-linecap:round;stroke-linejoin:miter;stroke:rgb(100%,91.758728%,0%);stroke-opacity:1;stroke-miterlimit:4;" d="M 0.500472 -0.00130145 L 33.516123 -0.000068519 " transform="matrix(-1.331189,-0.689846,0.690004,-1.331495,138.253058,143.948984)"/>
<path style="fill:none;stroke-width:1;stroke-linecap:round;stroke-linejoin:miter;stroke:rgb(100%,91.758728%,0%);stroke-opacity:1;stroke-miterlimit:4;" d="M 0.499356 0.0000625207 L 31.616264 0.0000421788 " transform="matrix(-1.308825,0.721572,-0.724039,-1.313298,135.505177,48.213979)"/>
<path style="fill:none;stroke-width:1;stroke-linecap:round;stroke-linejoin:miter;stroke:rgb(100%,91.758728%,0%);stroke-opacity:1;stroke-miterlimit:4;" d="M 0.499119 0.000521101 L 32.759909 -0.000172323 " transform="matrix(-1.308202,0.755291,-0.749831,-1.298745,79.985371,138.897134)"/>
<path style="fill:none;stroke-width:1;stroke-linecap:round;stroke-linejoin:miter;stroke:rgb(100%,91.758728%,0%);stroke-opacity:1;stroke-miterlimit:4;" d="M 0.500583 0.000681179 L 32.103363 -0.000892221 " transform="matrix(1.31178,0.717096,-0.719337,1.315879,38.222742,212.499513)"/>
<path style="fill:none;stroke-width:1;stroke-linecap:round;stroke-linejoin:miter;stroke:rgb(100%,91.758728%,0%);stroke-opacity:1;stroke-miterlimit:4;" d="M 0.501262 -0.000657627 L 32.75852 -0.000397645 " transform="matrix(-1.308202,0.755291,-0.749831,-1.298745,243.467759,231.601016)"/>
<path style="fill:none;stroke-width:1;stroke-linecap:round;stroke-linejoin:miter;stroke:rgb(100%,91.758728%,0%);stroke-opacity:1;stroke-miterlimit:4;" d="M 0.499909 0.00011413 L 32.874834 -0.000842618 " transform="matrix(1.303914,0.752815,-0.749831,1.298745,200.258403,302.256325)"/>
<g clip-path="url(#clip5)" clip-rule="nonzero">
<path style="fill:none;stroke-width:1;stroke-linecap:round;stroke-linejoin:miter;stroke:rgb(100%,91.758728%,0%);stroke-opacity:1;stroke-miterlimit:4;" d="M 0.500357 -0.00139104 L 41.158619 -0.00126616 " transform="matrix(-0.821919,1.247635,-1.252332,-0.825014,8.620449,322.331621)"/>
</g>
<path style="fill:none;stroke-width:1;stroke-linecap:round;stroke-linejoin:miter;stroke:rgb(100%,91.758728%,0%);stroke-opacity:1;stroke-miterlimit:4;" d="M 0.50115 0.000137526 L 34.24854 -0.000230501 " transform="matrix(0.744604,1.289691,-1.298745,0.749831,54.142645,319.459036)"/>
<path style="fill:none;stroke-width:1;stroke-linecap:round;stroke-linejoin:miter;stroke:rgb(100%,91.758728%,0%);stroke-opacity:1;stroke-miterlimit:4;" d="M 0.500941 -0.000261889 L 30.937134 -0.000261889 " transform="matrix(1.503016,0,0,1.499661,5.727547,405.484768)"/>
<path style="fill:none;stroke-width:1;stroke-linecap:round;stroke-linejoin:miter;stroke:rgb(100%,91.758728%,0%);stroke-opacity:1;stroke-miterlimit:4;" d="M 0.500122 -0.000380901 L 42.404002 0.000304399 " transform="matrix(-0.751606,1.30182,-1.298745,-0.749831,1268.266025,50.008801)"/>
<path style="fill:none;stroke-width:1;stroke-linecap:round;stroke-linejoin:miter;stroke:rgb(100%,91.758728%,0%);stroke-opacity:1;stroke-miterlimit:4;" d="M 0.500979 0.000250457 L 42.193479 0.000250457 " transform="matrix(-1.493074,-0.000000000000000183,0.000000000000000184,-1.499661,1337.822217,48.320688)"/>
<path style="fill:none;stroke-width:1;stroke-linecap:round;stroke-linejoin:miter;stroke:rgb(100%,91.758728%,0%);stroke-opacity:1;stroke-miterlimit:4;" d="M 0.501388 -0.000237541 L 43.561418 0.000961278 " transform="matrix(-0.7489,-1.297133,1.298745,-0.749831,1372.32111,106.755657)"/>
<path style="fill:none;stroke-width:1;stroke-linecap:round;stroke-linejoin:miter;stroke:rgb(100%,91.758728%,0%);stroke-opacity:1;stroke-miterlimit:4;" d="M 0.501208 -0.00117839 L 42.193708 -0.00117839 " transform="matrix(-1.493074,-0.000000000000000183,0.000000000000000184,-1.499661,1438.888966,230.951358)"/>
<path style="fill:none;stroke-width:1;stroke-linecap:round;stroke-linejoin:miter;stroke:rgb(100%,91.758728%,0%);stroke-opacity:1;stroke-miterlimit:4;" d="M 0.499421 -0.000542246 L 42.194537 -0.000542246 " transform="matrix(-1.493074,-0.000000000000000183,0.000000000000000184,-1.499661,1335.288642,169.237468)"/>
<path style="fill:none;stroke-width:1;stroke-linecap:round;stroke-linejoin:miter;stroke:rgb(100%,91.758728%,0%);stroke-opacity:1;stroke-miterlimit:4;" d="M 0.49913 0.000436737 L 45.47534 -0.000622599 " transform="matrix(-0.75034,1.299628,-1.298745,-0.749831,1371.035241,109.531331)"/>
<path style="fill:none;stroke-width:1;stroke-linecap:round;stroke-linejoin:miter;stroke:rgb(100%,91.758728%,0%);stroke-opacity:1;stroke-miterlimit:4;" d="M 0.499544 -0.0000500991 L 46.899556 -0.000422848 " transform="matrix(0.751437,1.301528,-1.298745,0.749831,1233.70659,109.533461)"/>
<path style="fill:none;stroke-width:1;stroke-linecap:round;stroke-linejoin:miter;stroke:rgb(100%,91.758728%,0%);stroke-opacity:1;stroke-miterlimit:4;" d="M 0.500786 0.000601206 L 42.193286 0.000601206 " transform="matrix(-1.493074,-0.000000000000000183,0.000000000000000184,-1.499661,1441.888336,351.41887)"/>
<path style="fill:none;stroke-width:1;stroke-linecap:round;stroke-linejoin:miter;stroke:rgb(100%,91.758728%,0%);stroke-opacity:1;stroke-miterlimit:4;" d="M 0.499498 0.000171925 L 43.791304 -0.000640923 " transform="matrix(-0.753402,-1.30493,1.298745,-0.749831,1372.547975,349.050377)"/>
<path style="fill:none;stroke-width:1;stroke-linecap:round;stroke-linejoin:miter;stroke:rgb(100%,91.758728%,0%);stroke-opacity:1;stroke-miterlimit:4;" d="M 0.499168 0.000399987 L 42.269777 0.000131679 " transform="matrix(0.75394,-1.305863,1.298745,0.749831,1342.170013,286.924982)"/>
<path style="fill:none;stroke-width:1;stroke-linecap:round;stroke-linejoin:miter;stroke:rgb(100%,91.758728%,0%);stroke-opacity:1;stroke-miterlimit:4;" d="M 0.500934 0.000256881 L 43.740174 0.000502545 " transform="matrix(0.745858,1.291863,-1.298745,0.749831,1339.372802,169.922981)"/>
<g clip-path="url(#clip6)" clip-rule="nonzero">
<path style="fill:none;stroke-width:1;stroke-linecap:round;stroke-linejoin:miter;stroke:rgb(100%,91.758728%,0%);stroke-opacity:1;stroke-miterlimit:4;" d="M 0.499502 0.000997517 L 49.351873 -0.000385763 " transform="matrix(-0.752063,1.302612,-1.298745,-0.749831,1481.087891,168.084465)"/>
</g>
<g clip-path="url(#clip7)" clip-rule="nonzero">
<path style="fill:none;stroke-width:1;stroke-linecap:round;stroke-linejoin:miter;stroke:rgb(100%,91.758728%,0%);stroke-opacity:1;stroke-miterlimit:4;" d="M 0.498882 0.000226725 L 44.668445 -0.000247839 " transform="matrix(0.747107,1.294027,-1.298745,0.749831,1447.322889,108.780045)"/>
</g>
<g clip-path="url(#clip8)" clip-rule="nonzero">
<path style="fill:none;stroke-width:1;stroke-linecap:round;stroke-linejoin:miter;stroke:rgb(100%,91.758728%,0%);stroke-opacity:1;stroke-miterlimit:4;" d="M 0.498825 -0.000490491 L 46.657533 -0.000828603 " transform="matrix(-0.747346,1.294441,-1.298745,-0.749831,1480.926845,48.994558)"/>
</g>
<g clip-path="url(#clip9)" clip-rule="nonzero">
<path style="fill:none;stroke-width:1;stroke-linecap:round;stroke-linejoin:miter;stroke:rgb(100%,91.758728%,0%);stroke-opacity:1;stroke-miterlimit:4;" d="M 0.500459 0.00061831 L 43.850431 0.000325804 " transform="matrix(-1.034091,-1.093397,1.089558,-1.03046,1488.723878,397.934556)"/>
</g>
<path style="fill:none;stroke-width:1;stroke-linecap:round;stroke-linejoin:miter;stroke:rgb(100%,91.758728%,0%);stroke-opacity:1;stroke-miterlimit:4;" d="M 0.499813 -0.000598149 L 42.110226 -0.000922435 " transform="matrix(-0.747906,-1.295411,1.298745,-0.749831,1476.21834,286.869671)"/>
<g clip-path="url(#clip10)" clip-rule="nonzero">
<path style="fill:none;stroke-width:1;stroke-linecap:round;stroke-linejoin:miter;stroke:rgb(100%,91.758728%,0%);stroke-opacity:1;stroke-miterlimit:4;" d="M 0.499373 0.00138063 L 44.348584 -0.0000518423 " transform="matrix(0.752443,-1.30327,1.298745,0.749831,1444.641988,350.29822)"/>
</g>
<path style="fill:none;stroke-width:1;stroke-linecap:round;stroke-linejoin:miter;stroke:rgb(100%,91.758728%,0%);stroke-opacity:1;stroke-miterlimit:4;" d="M 0.499705 -0.000990652 L 36.956027 -0.000365601 " transform="matrix(0.750769,-1.30037,1.298745,0.749831,1355.34878,290.408356)"/>
<path style="fill:none;stroke-width:1;stroke-linecap:round;stroke-linejoin:miter;stroke:rgb(100%,91.758728%,0%);stroke-opacity:1;stroke-miterlimit:4;" d="M 0.499907 0.000593821 L 36.749732 0.0010285 " transform="matrix(-0.744955,-1.290299,1.298745,-0.749831,1461.914606,291.676725)"/>
<path style="fill:none;stroke-width:1;stroke-linecap:round;stroke-linejoin:miter;stroke:rgb(100%,91.758728%,0%);stroke-opacity:1;stroke-miterlimit:4;" d="M 0.499562 -0.000542739 L 37.718589 -0.000542739 " transform="matrix(-1.491383,-0.000000000000000183,0.000000000000000184,-1.499661,1438.866131,338.229655)"/>
<path style="fill:none;stroke-width:1;stroke-linecap:round;stroke-linejoin:miter;stroke:rgb(100%,91.758728%,0%);stroke-opacity:1;stroke-miterlimit:4;" d="M 0.499973 0.000233913 L 37.193374 0.000233913 " transform="matrix(-1.4922,-0.000000000000000183,0.000000000000000184,-1.499661,1333.789029,156.769882)"/>
<path style="fill:none;stroke-width:1;stroke-linecap:round;stroke-linejoin:miter;stroke:rgb(100%,91.758728%,0%);stroke-opacity:1;stroke-miterlimit:4;" d="M 0.500309 0.0000301652 L 36.869437 0.000358582 " transform="matrix(-0.752496,-1.303361,1.298745,-0.749831,1358.204567,110.613044)"/>
</g>
</svg>
